<svg width="137" height="45" viewBox="0 0 137 45" fill="none" xmlns="http://www.w3.org/2000/svg">
<path d="M12.1372 0.960938V1.1526L11.333 1.34426V9.83642L12.1372 10.0281V10.2197H8.32476V10.0281L9.12895 9.83642V2.59745L5.9718 10.3524H5.56968L1.47432 2.59745V9.63001L2.54656 10.0281V10.2197H0V10.0281L1.07224 9.63001V1.34426L0.268049 1.1526V0.960938H1.93597C2.18914 0.960938 2.41253 0.990423 2.59124 1.0494C2.76994 1.10837 2.94867 1.18209 3.0827 1.28529C3.23163 1.38849 3.35076 1.50644 3.45501 1.63913C3.55926 1.77182 3.64861 1.934 3.73797 2.09617L6.65683 7.62492L8.89067 2.09617C8.96513 1.90451 9.03961 1.74233 9.14386 1.60964C9.23321 1.47695 9.35232 1.35901 9.48635 1.2558C9.62038 1.1526 9.78422 1.07888 9.97782 1.03465C10.1714 0.990423 10.4097 0.960938 10.7075 0.960938H12.1372Z" fill="#B1B1B1"/>
<path d="M16.9028 3.4231C17.4538 3.4231 17.9601 3.49681 18.392 3.65899C18.8239 3.82117 19.1962 4.05706 19.5089 4.35192C19.8216 4.66153 20.045 5.03012 20.2088 5.45767C20.3727 5.88523 20.4471 6.3865 20.4471 6.932C20.4471 7.47751 20.3727 7.97878 20.2088 8.40634C20.045 8.83389 19.8067 9.20248 19.5089 9.51208C19.1962 9.82169 18.8239 10.0428 18.392 10.205C17.9601 10.3672 17.4538 10.4409 16.9028 10.4409C16.3517 10.4409 15.8454 10.3672 15.4135 10.205C14.9817 10.0428 14.6094 9.80695 14.2966 9.51208C13.9839 9.20248 13.7605 8.83389 13.5967 8.40634C13.4329 7.97878 13.3584 7.47751 13.3584 6.932C13.3584 6.3865 13.4329 5.88523 13.5967 5.45767C13.7605 5.03012 13.9988 4.66153 14.2966 4.35192C14.6094 4.04231 14.9817 3.82117 15.4135 3.65899C15.8454 3.49681 16.3369 3.4231 16.9028 3.4231ZM16.9028 10.1903C17.0517 10.1903 17.2006 10.146 17.3644 10.0428C17.5133 9.93964 17.6474 9.77746 17.7665 9.52683C17.8856 9.27619 17.9899 8.95184 18.0644 8.53903C18.1388 8.11147 18.1835 7.58071 18.1835 6.94675C18.1835 6.29804 18.1388 5.76728 18.0644 5.35447C17.9899 4.94166 17.8856 4.60256 17.7665 4.36667C17.6474 4.13077 17.5133 3.95386 17.3644 3.85065C17.2155 3.74745 17.0666 3.70322 16.9028 3.70322C16.7538 3.70322 16.6049 3.74745 16.4411 3.85065C16.2922 3.95386 16.1581 4.11603 16.039 4.36667C15.9198 4.6173 15.8156 4.94166 15.7412 5.35447C15.6667 5.78203 15.622 6.31278 15.622 6.94675C15.622 7.59545 15.6667 8.12621 15.7412 8.53903C15.8156 8.95184 15.9198 9.29094 16.039 9.52683C16.1581 9.76272 16.2922 9.93964 16.4411 10.0428C16.59 10.1313 16.7389 10.1903 16.9028 10.1903Z" fill="#B1B1B1"/>
<path d="M26.9551 0.960938C27.7593 0.960938 28.1614 1.35901 28.1614 2.15515V9.85116L28.9655 10.0428V10.2345H27.7593C27.4316 10.2345 27.1785 10.1903 26.9849 10.0871C26.7913 9.98385 26.6274 9.8659 26.5232 9.74796C26.3892 9.60052 26.2849 9.4236 26.2254 9.24668C26.1062 9.48258 25.9573 9.67424 25.7786 9.85116C25.6297 9.99859 25.4212 10.1313 25.168 10.264C24.9148 10.3967 24.617 10.4556 24.2745 10.4556C23.8873 10.4556 23.5298 10.3819 23.2022 10.2345C22.8597 10.0871 22.5768 9.8659 22.3385 9.57103C22.1002 9.27617 21.8917 8.90759 21.7577 8.48003C21.6088 8.03773 21.5492 7.53646 21.5492 6.94672C21.5492 6.35699 21.6237 5.85572 21.7577 5.41342C21.9066 4.97112 22.1002 4.61728 22.3682 4.32241C22.6214 4.02755 22.9342 3.8064 23.2916 3.65896C23.649 3.51153 24.0511 3.43781 24.4979 3.43781C24.7362 3.43781 24.9446 3.4673 25.1382 3.51153C25.3318 3.5705 25.4956 3.62948 25.6297 3.7032C25.7935 3.77691 25.9275 3.86537 26.0466 3.96858V1.3885L25.2425 1.19683V1.00517H26.9551V0.960938ZM26.0169 4.3519C25.9126 4.2487 25.8233 4.16024 25.7041 4.08652C25.5999 4.01281 25.4956 3.95383 25.3765 3.89486C25.2574 3.83588 25.1382 3.82114 25.0042 3.82114C24.8404 3.82114 24.6766 3.86537 24.5276 3.95383C24.3787 4.04229 24.2596 4.18972 24.1404 4.41087C24.0362 4.63202 23.9469 4.95638 23.8873 5.35444C23.8277 5.76726 23.7979 6.28327 23.7979 6.93198C23.7979 7.56594 23.8277 8.06722 23.8873 8.46529C23.9469 8.86336 24.0213 9.17296 24.1256 9.39411C24.2149 9.61526 24.3192 9.77744 24.4532 9.85116C24.5723 9.92487 24.6915 9.9691 24.8106 9.9691C25.0191 9.9691 25.1978 9.91013 25.3467 9.80693C25.4956 9.70372 25.6148 9.57103 25.719 9.43834C25.8381 9.27617 25.9424 9.09925 26.0318 8.90758V4.3519H26.0169Z" fill="#B1B1B1"/>
<path d="M33.4479 10.4558C32.3012 10.4558 31.4077 10.1462 30.7822 9.52698C30.1419 8.90776 29.8291 8.0379 29.8291 6.9469C29.8291 6.40139 29.9036 5.90012 30.0674 5.47256C30.2312 5.04501 30.4546 4.67643 30.7376 4.36682C31.0205 4.05721 31.363 3.83606 31.78 3.67388C32.1821 3.5117 32.6288 3.43799 33.1203 3.43799C33.6266 3.43799 34.0734 3.5117 34.4606 3.64439C34.8627 3.79183 35.1903 3.98349 35.4733 4.21939C35.7562 4.45528 35.9647 4.7354 36.1136 5.05975C36.2626 5.38411 36.337 5.7232 36.337 6.09178C36.337 6.20973 36.337 6.32768 36.3221 6.41614C36.3072 6.5046 36.2924 6.59306 36.2775 6.66678C36.2477 6.75524 36.2328 6.82895 36.203 6.88792C35.8158 6.96164 35.3988 7.03536 34.952 7.07959C34.5797 7.13856 34.1479 7.18279 33.6564 7.21228C33.165 7.24176 32.6586 7.27125 32.1225 7.27125C32.1225 7.81675 32.1672 8.2738 32.2416 8.64238C32.3161 9.01096 32.4352 9.30583 32.5693 9.51223C32.7182 9.73338 32.882 9.88082 33.0756 9.96928C33.2692 10.0577 33.4926 10.102 33.716 10.102C33.9841 10.102 34.2372 10.0577 34.4755 9.95453C34.7137 9.85133 34.9222 9.73338 35.0861 9.57121C35.2648 9.40903 35.3988 9.21737 35.503 9.01096C35.6073 8.80456 35.652 8.59815 35.652 8.377H35.9796C35.9796 8.64238 35.92 8.89301 35.8009 9.14365C35.6818 9.39429 35.5031 9.61544 35.2797 9.8071C35.0563 9.99876 34.7882 10.1462 34.4755 10.2641C34.1776 10.3968 33.8351 10.4558 33.4479 10.4558ZM32.1076 6.93215C32.4055 6.93215 32.6735 6.93216 32.9118 6.91741C33.1501 6.90267 33.3437 6.88792 33.5075 6.87318C33.7011 6.85844 33.85 6.82895 33.984 6.81421C33.9989 6.72575 34.0287 6.62255 34.0436 6.51934C34.0585 6.41614 34.0734 6.31293 34.0883 6.19499C34.1032 6.07704 34.1032 5.94435 34.1032 5.81166C34.1032 5.41359 34.0734 5.0745 34.0138 4.80912C33.9542 4.54374 33.8798 4.32259 33.7755 4.14567C33.6862 3.98349 33.5819 3.8508 33.4479 3.79183C33.3139 3.73285 33.2096 3.68862 33.0905 3.68862C32.9714 3.68862 32.8522 3.73285 32.7331 3.82131C32.614 3.90977 32.5097 4.07195 32.4055 4.2931C32.3161 4.52899 32.2268 4.85335 32.1672 5.2809C32.1076 5.70846 32.1076 6.25396 32.1076 6.93215Z" fill="#B1B1B1"/>
<path d="M41.9663 3.88002C41.6982 3.88002 41.46 3.93899 41.2515 4.04219C41.043 4.1454 40.8643 4.27809 40.7154 4.41078C40.5515 4.57295 40.4175 4.74987 40.2835 4.94154V9.85106L41.0877 10.0427V10.2344H37.3348V10.0427L38.139 9.85106V4.01271L37.3348 3.82104V3.62938H38.5411C38.8538 3.62938 39.107 3.68835 39.3155 3.79156C39.5091 3.89476 39.6729 4.01271 39.792 4.13065C39.9261 4.27809 40.0303 4.44026 40.0899 4.61718C40.2239 4.42552 40.3877 4.2486 40.5813 4.08642C40.7452 3.95373 40.9537 3.83579 41.2068 3.71784C41.46 3.59989 41.7429 3.55566 42.0855 3.55566C42.562 3.55566 42.9194 3.67361 43.1577 3.88002C43.396 4.10117 43.5002 4.41078 43.5002 4.80885C43.5002 5.10371 43.4109 5.35435 43.2322 5.53127C43.0534 5.70819 42.8003 5.79665 42.5024 5.79665C42.428 5.79665 42.3684 5.79665 42.2939 5.79665C42.2195 5.79665 42.1748 5.78191 42.1301 5.78191C42.0706 5.76716 42.011 5.76716 41.9663 5.73767V3.88002Z" fill="#B1B1B1"/>
<path d="M49.2635 5.6052C49.2635 5.31033 49.2337 5.04496 49.1742 4.82381C49.1146 4.60266 49.0402 4.42574 48.9359 4.29305C48.8466 4.14561 48.7423 4.04241 48.6083 3.98344C48.4892 3.92446 48.37 3.88023 48.2508 3.88023C48.0424 3.88023 47.8637 3.93921 47.7148 4.04241C47.5658 4.14561 47.4318 4.2783 47.3424 4.41099C47.2233 4.57317 47.1339 4.75009 47.0446 4.94175V9.85128L47.8488 10.0429V10.2346H44.0959V10.0429L44.9001 9.85128V4.01292L44.0959 3.82126V3.6296H45.3022C45.615 3.6296 45.8681 3.68857 46.0766 3.79177C46.2702 3.89498 46.434 4.01292 46.5532 4.13087C46.6872 4.2783 46.7914 4.44048 46.851 4.6174C46.9701 4.39625 47.1191 4.18984 47.2978 4.01292C47.4467 3.86549 47.6552 3.7328 47.8935 3.60011C48.1317 3.46742 48.4444 3.40845 48.8019 3.40845C49.1891 3.40845 49.5465 3.46742 49.8592 3.60011C50.1869 3.71806 50.4549 3.89498 50.6783 4.08664C50.9017 4.29305 51.0804 4.5142 51.2144 4.77958C51.3485 5.04496 51.408 5.31033 51.408 5.59046V9.83653L52.2122 10.0282V10.2199H50.4698C49.6656 10.2199 49.2635 9.82179 49.2635 9.02565V5.6052Z" fill="#B1B1B1"/>
<path d="M1.41492 19.5523V19.0068H11.765V19.5523L9.59074 20.0978V31.229H17.3943V20.0978L15.22 19.5523V19.0068H25.5701V19.5523L23.3958 20.0978V43.0974L25.5701 43.6429V44.1884H15.22V43.6282L17.3943 43.0827V32.1284H9.59074V43.0827L11.765 43.6282V44.1737H1.41492V43.6282L3.58917 43.0827V20.0831L1.41492 19.5523Z" fill="#B1B1B1"/>
<path d="M38.4368 25.656C39.9409 25.656 41.2812 25.8772 42.4726 26.3047C43.6639 26.7323 44.6617 27.3662 45.4957 28.1919C46.3297 29.0175 46.97 30.02 47.4019 31.1995C47.8338 32.379 48.0572 33.7059 48.0572 35.1949C48.0572 36.684 47.8338 38.0109 47.4019 39.1904C46.97 40.3698 46.3297 41.3576 45.4957 42.1833C44.6617 43.0089 43.6491 43.6429 42.4726 44.0704C41.2812 44.498 39.9409 44.7191 38.4368 44.7191C36.9327 44.7191 35.5924 44.498 34.401 44.0704C33.2096 43.6429 32.2118 43.0089 31.3779 42.1833C30.5439 41.3576 29.9035 40.3551 29.4717 39.1904C29.0398 38.0109 28.8164 36.684 28.8164 35.1949C28.8164 33.7059 29.0398 32.379 29.4717 31.1995C29.9035 30.02 30.5439 29.0322 31.3779 28.1919C32.2118 27.3515 33.2245 26.7323 34.401 26.3047C35.5924 25.8772 36.9327 25.656 38.4368 25.656ZM38.4368 43.9819C38.8538 43.9819 39.2559 43.8493 39.6729 43.5839C40.0898 43.3185 40.4472 42.8615 40.7749 42.198C41.1025 41.5346 41.3706 40.6352 41.5791 39.5C41.7876 38.3647 41.8918 36.9199 41.8918 35.1654C41.8918 33.411 41.7876 31.9661 41.5791 30.8309C41.3706 29.6957 41.1025 28.7963 40.7749 28.1329C40.4472 27.4694 40.075 27.0124 39.6729 26.747C39.2708 26.4816 38.8538 26.3489 38.4368 26.3489C38.0198 26.3489 37.6177 26.4816 37.2007 26.747C36.7838 27.0124 36.4263 27.4694 36.0987 28.1329C35.7711 28.7963 35.503 29.6957 35.2945 30.8309C35.086 31.9661 34.9818 33.411 34.9818 35.1654C34.9818 36.9199 35.086 38.3647 35.2945 39.5C35.503 40.6352 35.7711 41.5346 36.0987 42.198C36.4263 42.8615 36.7987 43.3185 37.2007 43.5839C37.6177 43.8493 38.0198 43.9819 38.4368 43.9819Z" fill="#B1B1B1"/>
<path d="M75.2655 31.5828C75.2655 30.7277 75.191 29.9905 75.0421 29.4155C74.8932 28.8405 74.7145 28.354 74.4762 27.9854C74.2379 27.6168 73.9847 27.3514 73.7167 27.1745C73.4337 27.0123 73.1657 26.9239 72.8976 26.9239C72.4359 26.9239 72.0338 27.0713 71.6764 27.3662C71.319 27.661 71.0212 28.0001 70.7531 28.354C70.4702 28.7815 70.2021 29.2681 69.9936 29.7841V43.0826L72.1828 43.6281V44.1736H62.0262V43.6281L64.2005 43.0826V31.5828C64.2005 30.7277 64.126 29.9905 63.9771 29.4155C63.8282 28.8405 63.6495 28.354 63.4112 27.9854C63.1729 27.6168 62.9198 27.3514 62.6517 27.1745C62.3688 27.0123 62.1007 26.9239 61.8326 26.9239C61.371 26.9239 60.9689 27.0713 60.6115 27.3662C60.2541 27.661 59.9562 28.0001 59.6881 28.354C59.3903 28.7815 59.1372 29.2681 58.9287 29.7841V43.0826L61.1029 43.6281V44.1736H50.9464V43.6281L53.1207 43.0826V27.2777L50.9464 26.7322V26.1867H54.2078C55.0567 26.1867 55.7566 26.3341 56.2927 26.6143C56.8437 26.8944 57.2608 27.2187 57.5884 27.5431C57.9458 27.9559 58.2138 28.3982 58.3925 28.87C58.7053 28.2655 59.0925 27.7348 59.5541 27.2482C59.9711 26.8354 60.4775 26.4668 61.0732 26.1277C61.6837 25.7886 62.4134 25.6265 63.2921 25.6265C64.7366 25.6265 66.0025 25.9508 67.0449 26.5848C68.1023 27.2187 68.9065 28.0444 69.4575 29.0469C69.7702 28.4277 70.1574 27.8675 70.6191 27.3514C71.0361 26.9239 71.5424 26.5258 72.1381 26.172C72.7487 25.8181 73.4784 25.6265 74.357 25.6265C75.3548 25.6265 76.2484 25.7886 77.0823 26.0983C77.9014 26.4079 78.6162 26.8354 79.2119 27.3809C79.8076 27.9264 80.2692 28.5456 80.5969 29.2681C80.9245 29.9905 81.0883 30.7571 81.0883 31.568V43.0678L83.2626 43.6133V44.1588H78.5417C76.3675 44.1588 75.2803 43.0826 75.2803 40.93V31.5828H75.2655Z" fill="#B1B1B1"/>
<path d="M95.2359 44.7045C92.1383 44.7045 89.7257 43.8641 88.0131 42.1686C86.3005 40.4731 85.4368 38.1584 85.4368 35.1803C85.4368 33.6912 85.6602 32.3643 86.092 31.1848C86.5239 30.0054 87.1345 29.0176 87.9089 28.1772C88.6833 27.3516 89.6215 26.7176 90.7235 26.2901C91.8256 25.8625 93.0318 25.6414 94.3274 25.6414C95.6826 25.6414 96.9038 25.833 97.9761 26.2163C99.0483 26.5997 99.9716 27.1157 100.716 27.7644C101.461 28.4131 102.042 29.1798 102.444 30.0496C102.846 30.9195 103.039 31.8483 103.039 32.8361C103.039 33.1752 103.024 33.4701 102.98 33.7207C102.935 33.9713 102.905 34.1925 102.846 34.3841C102.771 34.62 102.712 34.8264 102.667 34.9886C101.595 35.2098 100.478 35.3867 99.2866 35.5341C98.2739 35.6816 97.0974 35.7995 95.772 35.9174C94.4466 36.0206 93.0467 36.0796 91.6022 36.0796C91.6022 37.5687 91.7064 38.8071 91.9298 39.7949C92.1532 40.7827 92.451 41.5789 92.8382 42.1686C93.2254 42.7583 93.6871 43.1712 94.2232 43.4218C94.7593 43.6724 95.3401 43.8051 95.9656 43.8051C96.6953 43.8051 97.3804 43.6724 98.0207 43.4071C98.6611 43.1417 99.2121 42.7878 99.6887 42.3455C100.165 41.9032 100.538 41.402 100.82 40.8417C101.103 40.2815 101.237 39.7065 101.237 39.1315H102.146C102.146 39.8539 101.982 40.5468 101.654 41.2103C101.327 41.8885 100.865 42.4782 100.255 42.9942C99.644 43.5103 98.9292 43.9231 98.0803 44.2327C97.2166 44.5423 96.2635 44.7045 95.2359 44.7045ZM91.6022 35.1803C92.4212 35.1803 93.151 35.1655 93.7764 35.1213C94.4019 35.0771 94.938 35.0476 95.3699 35.0034C95.8762 34.9591 96.3081 34.9002 96.6804 34.8264C96.7251 34.5905 96.7847 34.3252 96.8591 34.0303C96.9038 33.7649 96.9485 33.4701 96.9783 33.1457C97.008 32.8214 97.0378 32.4823 97.0378 32.1284C97.0378 31.0522 96.9485 30.1528 96.7846 29.4156C96.6208 28.6785 96.3975 28.0887 96.1443 27.6317C95.8911 27.1747 95.5933 26.8503 95.2806 26.6586C94.9529 26.467 94.6253 26.3638 94.3125 26.3638C93.9998 26.3638 93.6722 26.4817 93.3445 26.7029C93.0169 26.9388 92.734 27.3663 92.4808 28.0003C92.2276 28.6342 92.0192 29.5336 91.8405 30.6836C91.6915 31.8335 91.6022 33.3374 91.6022 35.1803Z" fill="#B1B1B1"/>
<path d="M120.865 43.805V29.2239L107.85 19.0215V43.805H120.865Z" fill="#B1B1B1"/>
<path d="M136.964 43.805V29.2239L124.157 19.0215V43.805H136.964Z" fill="#B1B1B1"/>
</svg>
