<svg width="108" height="106" viewBox="0 0 108 106" fill="none" xmlns="http://www.w3.org/2000/svg">
<g style="mix-blend-mode:multiply">
<path d="M54.3379 104.943C83.4042 104.943 106.967 81.6158 106.967 52.8402C106.967 24.0646 83.4042 0.737305 54.3379 0.737305C25.2716 0.737305 1.70874 24.0646 1.70874 52.8402C1.70874 81.6158 25.2716 104.943 54.3379 104.943Z" fill="white"/>
<path d="M54.3379 105.68C24.9108 105.68 0.964111 81.9728 0.964111 52.84C0.964111 23.7073 24.9108 0 54.3379 0C83.765 0 107.712 23.7073 107.712 52.84C107.712 81.9728 83.765 105.68 54.3379 105.68ZM54.3379 1.47433C25.7299 1.47433 2.45334 24.5181 2.45334 52.84C2.45334 81.162 25.7299 104.206 54.3379 104.206C82.9459 104.206 106.222 81.162 106.222 52.84C106.222 24.5181 82.9459 1.47433 54.3379 1.47433Z" fill="#B1B1B1"/>
<path d="M61.8436 6.03C62.201 6.05949 62.5137 6.07423 62.7669 6.07423L62.7371 6.31012C62.3201 6.3691 61.9627 6.6787 61.6798 7.26844L58.1354 14.2863L58.0312 14.2715L57.9418 14.2568L55.6931 6.42807C55.5442 5.91205 55.291 5.63193 54.9336 5.5877L54.9634 5.35181C55.291 5.41078 55.7229 5.45501 56.259 5.51398C56.9589 5.57296 57.4802 5.61719 57.8227 5.61719L57.7929 5.85308C57.4802 5.83834 57.2568 5.85308 57.1227 5.89731C56.9887 5.94154 56.9143 6.05949 56.8994 6.20692C56.8845 6.33961 56.9143 6.53127 56.9887 6.78191L58.6418 12.7677L61.099 7.87291C61.3075 7.47484 61.4117 7.15049 61.4415 6.9146C61.4713 6.66396 61.3968 6.4723 61.233 6.33961C61.0692 6.20692 60.8011 6.1332 60.4437 6.08897L60.4735 5.85308C60.9054 5.9268 61.367 5.98577 61.8436 6.03Z" fill="#B1B1B1"/>
<path d="M71.8514 9.14089C71.7025 9.14089 71.5834 9.19986 71.494 9.31781C71.4047 9.43576 71.3004 9.62742 71.1962 9.90754L69.0666 15.51C68.9623 15.7901 68.9028 16.0113 68.9028 16.1587C68.9028 16.3061 68.9475 16.4241 69.0517 16.5126C69.1559 16.601 69.3495 16.7042 69.6176 16.8222L69.5283 17.0433C69.1857 16.8959 68.7092 16.7042 68.0986 16.4683C67.4433 16.2177 66.9519 16.0555 66.6243 15.9523L66.7136 15.7312C66.9966 15.8196 67.2051 15.8638 67.3391 15.8638C67.4731 15.8638 67.6072 15.8049 67.6965 15.6869C67.7859 15.569 67.8901 15.3773 67.9944 15.0972L70.1239 9.49473C70.2282 9.21461 70.2878 8.99346 70.2878 8.84602C70.2878 8.69859 70.2431 8.58065 70.1388 8.49219C70.0346 8.40373 69.841 8.30052 69.5729 8.18258L69.6623 7.96143C69.975 8.09412 70.4516 8.28578 71.1068 8.53641C71.7174 8.77231 72.2089 8.93448 72.5663 9.03769L72.4769 9.25884C72.2089 9.17038 72.0004 9.12615 71.8514 9.14089Z" fill="#B1B1B1"/>
<path d="M85.1055 16.9401C84.9565 16.9106 84.8076 16.9548 84.6736 17.0433C84.5396 17.1317 84.3757 17.3087 84.197 17.5593L79.8783 23.3534L79.6549 23.1913L80.2357 13.8735L76.4084 19.0042C76.2297 19.2548 76.1106 19.4612 76.051 19.6234C75.9914 19.7855 76.0212 19.933 76.0957 20.0804C76.1701 20.2278 76.3488 20.39 76.602 20.5964L76.4531 20.7881C76.2297 20.5964 75.9021 20.3458 75.4702 20.0214C75.083 19.7413 74.7703 19.5202 74.532 19.3875L74.6809 19.1958C74.9192 19.358 75.1128 19.4464 75.2617 19.4612C75.4106 19.4907 75.5595 19.4464 75.6936 19.358C75.8276 19.2548 75.9914 19.0926 76.1701 18.842L79.6847 14.1241C79.8634 13.8735 79.9825 13.6818 80.0272 13.5491C80.0719 13.4164 80.057 13.2837 79.9825 13.1658C79.9081 13.0479 79.7592 12.9004 79.5209 12.7088L79.6698 12.5171C79.8634 12.694 80.1612 12.9299 80.5633 13.21C80.8612 13.4312 81.1143 13.6081 81.3526 13.7408L80.8761 21.5547L83.9737 17.3971C84.1524 17.1465 84.2864 16.9401 84.3311 16.7779C84.3757 16.6157 84.3609 16.4683 84.2864 16.3209C84.2119 16.1734 84.0332 15.9965 83.7801 15.8049L83.929 15.6132C84.1524 15.8049 84.48 16.0555 84.9119 16.3798C85.2991 16.66 85.6118 16.8811 85.8501 17.0138L85.7012 17.2055C85.448 17.058 85.2544 16.9548 85.1055 16.9401Z" fill="#B1B1B1"/>
<path d="M90.0944 23.5893C90.4816 23.3091 90.8837 22.9995 91.3155 22.6162C91.6878 23.1765 92.3431 24.1053 93.2813 25.4174C94.2195 26.7149 94.8897 27.6289 95.2918 28.1597C94.7854 28.4546 94.3536 28.7199 93.9664 28.9853C93.6387 29.2212 93.3707 29.4276 93.1771 29.5898L93.0133 29.3686C93.4898 28.9558 93.8174 28.6167 94.011 28.3661C94.2046 28.1155 94.2791 27.8501 94.2642 27.57C94.2493 27.2898 94.0706 26.9507 93.7877 26.5379L93.4004 26.0072L87.7563 29.9879C87.4882 30.1795 87.2946 30.3565 87.2053 30.4891C87.1159 30.6218 87.0861 30.784 87.1457 30.9609C87.1904 31.1231 87.3244 31.359 87.518 31.6539L87.3244 31.8013C87.101 31.4475 86.7585 30.9462 86.3117 30.3417C85.8352 29.6783 85.4778 29.2065 85.2395 28.9116L85.4331 28.7642C85.6565 29.0443 85.8352 29.236 85.9841 29.3392C86.133 29.4424 86.282 29.4719 86.4458 29.4276C86.6096 29.3834 86.833 29.2654 87.101 29.0738L92.7452 25.0931L92.358 24.5623C92.0601 24.1495 91.7921 23.8989 91.5389 23.7809C91.2858 23.663 91.0028 23.6482 90.705 23.7514C90.4071 23.8547 89.9752 24.0463 89.4242 24.3559L89.2604 24.1348C89.4838 24.0168 89.7518 23.8399 90.0944 23.5893Z" fill="#B1B1B1"/>
<path d="M92.9533 44.053L92.715 44.1267C92.6257 43.8023 92.5065 43.3895 92.3278 42.8882C92.1044 42.2395 91.9257 41.753 91.7917 41.4287L92.03 41.3549C92.1342 41.6351 92.2534 41.8415 92.3427 41.9447C92.447 42.0479 92.581 42.0774 92.7299 42.0184C92.864 41.9742 93.0278 41.871 93.2214 41.7088L94.8744 40.3671L93.9362 37.6101L92.5512 37.5512C92.1044 37.5217 91.7619 37.5512 91.5237 37.6396C91.2854 37.7281 91.1365 37.8608 91.0769 38.0524C91.0322 38.2441 91.062 38.5242 91.1662 38.8633L90.928 38.937C90.8088 38.4947 90.6599 38.0524 90.511 37.6101C90.3918 37.271 90.2876 36.9909 90.1833 36.7698L90.4216 36.696C90.6301 37.0499 91.0769 37.2415 91.7321 37.2563L99.6548 37.6101L99.7144 37.7871L93.4001 42.9914C93.0129 43.36 92.864 43.6991 92.9533 44.053ZM98.1209 37.7871L94.2191 37.6249L95.0978 40.2197L98.1209 37.7871Z" fill="#B1B1B1"/>
<path d="M94.0405 55.3319C94.1894 55.2729 94.2639 55.1992 94.2639 55.096C94.2639 55.037 94.249 54.9928 94.2192 54.9485C94.1894 54.9043 94.1298 54.8158 94.0405 54.6979C93.8171 54.4178 93.6533 54.1229 93.5341 53.828C93.415 53.5332 93.3554 53.1941 93.3554 52.8255C93.3405 51.9999 93.5043 51.2922 93.832 50.6877C94.1745 50.0832 94.651 49.6262 95.3063 49.3018C95.9467 48.9775 96.7211 48.8153 97.6295 48.8006C98.5677 48.7858 99.3868 48.9333 100.087 49.2576C100.787 49.582 101.338 50.0243 101.725 50.614C102.112 51.2037 102.321 51.8672 102.321 52.6043C102.321 52.9287 102.291 53.2236 102.231 53.4742C102.172 53.7248 102.082 53.946 101.978 54.1376C101.874 54.3293 101.74 54.5505 101.561 54.7864C101.487 54.8896 101.442 54.978 101.442 55.037C101.442 55.1844 101.695 55.2876 102.187 55.3319V55.612C101.665 55.5825 100.727 55.5825 99.3868 55.612V55.3319C99.8186 55.2581 100.176 55.1697 100.459 55.0812C100.742 54.9928 100.98 54.8601 101.189 54.6979C101.472 54.462 101.71 54.1524 101.874 53.7691C102.038 53.3857 102.112 53.0024 102.112 52.5896C102.097 52.0588 101.918 51.6018 101.561 51.2037C101.204 50.8057 100.697 50.5108 100.057 50.2896C99.4017 50.0832 98.6571 49.98 97.7933 49.9948C96.8104 50.0095 96.0211 50.1275 95.3957 50.3486C94.7702 50.5698 94.3234 50.8941 94.0256 51.3217C93.7277 51.7492 93.5937 52.2947 93.6086 52.9582C93.6235 53.4447 93.7575 53.8575 94.0107 54.2114C94.1149 54.3588 94.2043 54.4473 94.3085 54.4915C94.3979 54.5357 94.5319 54.5505 94.6957 54.5505L95.8722 54.5357C96.2147 54.5357 96.453 54.4915 96.6168 54.4325C96.7658 54.3735 96.8849 54.2556 96.9296 54.0787C96.9891 53.9165 97.0189 53.6511 97.0189 53.2973H97.2572C97.2423 53.6954 97.2274 54.2556 97.2423 55.0075C97.2572 55.5678 97.2721 55.9953 97.3019 56.2607H97.0636C97.0487 56.069 97.004 55.9363 96.9593 55.8626C96.9147 55.7889 96.8104 55.7299 96.6764 55.7004C96.5424 55.671 96.319 55.6562 96.0062 55.6709L93.5937 55.7152V55.4793C93.7277 55.4203 93.8915 55.3908 94.0405 55.3319Z" fill="#B1B1B1"/>
<path d="M92.2688 67.8783C91.8369 67.7456 91.3306 67.6129 90.7498 67.495C90.9434 66.979 91.2263 66.1091 91.6284 64.8707C92.1049 63.3963 92.4475 62.2758 92.656 61.5239L92.8942 61.5976C92.8198 61.8778 92.79 62.0842 92.79 62.2316C92.8049 62.379 92.8645 62.4822 92.9836 62.5707C93.1027 62.6592 93.3112 62.7476 93.5942 62.8361L99.3575 64.6348C99.6553 64.7232 99.8638 64.7675 100.013 64.7675C100.162 64.7675 100.281 64.7085 100.37 64.5905C100.459 64.4726 100.549 64.2809 100.653 64.0155L100.891 64.0893C100.623 64.8412 100.266 65.9469 99.7893 67.4213C99.4319 68.5417 99.1788 69.3526 99.0596 69.8392C98.5682 69.6327 98.1214 69.4558 97.7044 69.3379C97.4066 69.2494 97.1534 69.1757 96.9747 69.1462L97.0641 68.8808C97.5853 68.984 97.9874 69.0283 98.2554 69.0283C98.5235 69.0283 98.7469 68.9398 98.9256 68.7629C99.1043 68.6007 99.2532 68.3059 99.3872 67.9078L99.6851 66.9495C99.7745 66.6693 99.8191 66.4629 99.8042 66.3303C99.7893 66.1976 99.7447 66.0796 99.6255 65.9911C99.5064 65.9027 99.3128 65.8142 99.0149 65.7258L96.2748 64.8707L96.0365 65.6373C95.9174 66.0206 95.9471 66.3155 96.1407 66.5219C96.3343 66.7283 96.5428 66.8758 96.7811 66.979C97.0194 67.0822 97.1683 67.1559 97.2279 67.1854L97.1385 67.4507C96.7662 67.3033 96.4088 67.1706 96.0514 67.0674L95.5004 66.9052C95.1132 66.7873 94.5473 66.6251 93.8324 66.4629L93.9218 66.1976C93.9814 66.2123 94.175 66.2418 94.5026 66.3155C94.8302 66.3745 95.1132 66.345 95.3366 66.227C95.5599 66.1091 95.7089 65.8879 95.8131 65.5783L96.0514 64.8117L93.2517 63.9418C92.9538 63.8534 92.7453 63.8091 92.5964 63.8091C92.4475 63.8091 92.3283 63.8681 92.2539 63.9861C92.1645 64.104 92.0752 64.2957 91.9858 64.5758L91.7177 65.4162C91.5688 65.9027 91.5093 66.286 91.5688 66.5661C91.6135 66.861 91.7624 67.0969 92.0156 67.3033C92.2688 67.495 92.656 67.7161 93.1772 67.952L93.0878 68.2174C92.9091 68.0847 92.6262 67.9962 92.2688 67.8783Z" fill="#B1B1B1"/>
<path d="M88.024 85.9685C88.0836 85.8358 88.0687 85.7031 88.0091 85.5704C87.9496 85.4377 87.8006 85.2755 87.5773 85.0544L83.1989 80.9115C82.9756 80.7051 82.7968 80.5724 82.6628 80.5134C82.5288 80.4545 82.3948 80.4545 82.2607 80.5134C82.1267 80.5724 81.9629 80.7051 81.7544 80.9115L81.5757 80.7493C81.8586 80.4987 82.216 80.1301 82.6777 79.6731C83.1543 79.1718 83.5117 78.7885 83.7351 78.5378L83.9138 78.7C83.7202 78.9212 83.601 79.0981 83.5415 79.216C83.4819 79.3487 83.4968 79.4814 83.5563 79.6141C83.6159 79.7468 83.7648 79.909 83.9882 80.1301L88.3665 84.273C88.5899 84.4794 88.7686 84.6121 88.9027 84.6711C89.0367 84.73 89.1707 84.73 89.3048 84.6711C89.4388 84.6121 89.6026 84.4794 89.8111 84.273L89.9898 84.4352C89.7366 84.6563 89.3643 85.0249 88.8878 85.5262C88.4261 85.998 88.0836 86.3813 87.8453 86.6614L87.6666 86.4992C87.8453 86.2781 87.9645 86.1012 88.024 85.9685Z" fill="#B1B1B1"/>
<path d="M75.6188 94.9617C75.7082 94.829 75.7231 94.6963 75.6933 94.5341C75.6635 94.372 75.5592 94.1655 75.3954 93.8854L71.7021 87.6785L71.9404 87.531L80.3694 91.7034L77.108 86.2189C76.9442 85.9535 76.8102 85.7618 76.6762 85.6586C76.5421 85.5554 76.3932 85.5112 76.2294 85.526C76.0656 85.5407 75.8422 85.6292 75.5592 85.7766L75.4252 85.5702C75.6933 85.4522 76.0507 85.2458 76.5123 84.9805C76.9293 84.7298 77.2421 84.5382 77.4654 84.376L77.5846 84.5824C77.3463 84.7298 77.1825 84.8772 77.108 85.0099C77.0187 85.1426 77.0038 85.2753 77.0336 85.4375C77.0634 85.5997 77.1676 85.8061 77.3314 86.0862L80.3396 91.1432C80.4886 91.4085 80.6226 91.5855 80.7417 91.6739C80.8609 91.7624 80.98 91.8066 81.1289 91.7771C81.263 91.7476 81.4715 91.6739 81.7246 91.5412L81.8438 91.7476C81.6055 91.8656 81.2779 92.0425 80.846 92.2931C80.5332 92.4701 80.2652 92.647 80.0418 92.7944L72.968 89.3002L75.6188 93.7527C75.7826 94.0181 75.9166 94.2098 76.0507 94.313C76.1698 94.4162 76.3187 94.4604 76.4975 94.4457C76.6762 94.4309 76.8995 94.3425 77.1825 94.195L77.3016 94.4014C77.0336 94.5194 76.6762 94.7258 76.2145 94.9912C75.7975 95.2418 75.4848 95.4335 75.2614 95.5956L75.1423 95.3892C75.3656 95.2271 75.5295 95.0796 75.6188 94.9617Z" fill="#B1B1B1"/>
<path d="M67.4283 96.8932C67.5326 97.3502 67.6666 97.8515 67.8453 98.3822C67.1751 98.5002 66.0582 98.7361 64.4797 99.0604C62.9011 99.3995 61.799 99.6502 61.1438 99.8123C61.0693 99.2373 60.9949 98.7361 60.8906 98.279C60.8013 97.881 60.7268 97.5566 60.6375 97.3207L60.9055 97.2617C61.0991 97.8662 61.2778 98.2938 61.4416 98.5739C61.6054 98.854 61.8139 99.0309 62.082 99.1194C62.3501 99.2079 62.7373 99.1931 63.2287 99.0899L63.8691 98.9572L62.4096 92.249C62.3352 91.9247 62.2607 91.6888 62.1565 91.5561C62.0522 91.4234 61.9331 91.3349 61.7544 91.3202C61.5757 91.2907 61.3076 91.3202 60.9502 91.3792L60.9055 91.1433C61.3225 91.0843 61.9182 90.9663 62.6628 90.8042C63.4521 90.6272 64.0478 90.4946 64.4201 90.3914L64.4648 90.6273C64.1073 90.7157 63.8691 90.8042 63.7201 90.8926C63.5712 90.9811 63.4819 91.1138 63.4521 91.276C63.4223 91.4381 63.4372 91.6888 63.5117 92.0131L64.9711 98.7213L65.6115 98.5886C66.1029 98.4854 66.4603 98.338 66.6688 98.1463C66.8773 97.9547 66.9964 97.704 67.0262 97.3944C67.056 97.0848 67.0411 96.613 66.9667 95.9938L67.2347 95.9348C67.2794 96.1707 67.339 96.4951 67.4283 96.8932Z" fill="#B1B1B1"/>
<path d="M47.6663 92.7502C47.7109 92.2932 47.7258 91.7771 47.7258 91.2021C48.2768 91.2759 49.2002 91.3643 50.5107 91.4823C52.0595 91.615 53.2359 91.7182 54.0401 91.7624L54.0252 91.9983C53.7274 91.9835 53.5189 91.9983 53.3849 92.0425C53.2508 92.0867 53.1466 92.1605 53.087 92.2932C53.0275 92.4258 52.9828 92.647 52.953 92.9419L52.4169 98.9129C52.3871 99.2078 52.402 99.4289 52.4318 99.5764C52.4616 99.7238 52.5509 99.827 52.6849 99.886C52.819 99.9449 53.0275 100.004 53.3104 100.033L53.2955 100.269C52.5062 100.181 51.3297 100.063 49.7809 99.9302C48.5896 99.827 47.7407 99.768 47.2344 99.7385C47.3386 99.2225 47.4131 98.7507 47.4429 98.3232C47.4726 98.0136 47.4875 97.7629 47.4727 97.5713L47.7556 97.6007C47.7705 98.1315 47.8003 98.5148 47.8747 98.7802C47.9343 99.0456 48.0683 99.2373 48.2768 99.3699C48.4704 99.5026 48.7981 99.5911 49.215 99.6206L50.2277 99.709C50.5256 99.7385 50.734 99.7238 50.8681 99.6943C51.0021 99.6648 51.1064 99.5763 51.1659 99.4437C51.2255 99.311 51.2702 99.0898 51.3 98.795L51.5531 95.9642L50.7489 95.8905C50.3469 95.861 50.0639 95.9495 49.9001 96.1854C49.7512 96.4213 49.632 96.6572 49.5874 96.9078C49.5278 97.1585 49.498 97.3206 49.4831 97.3943L49.2002 97.3649C49.2597 96.9668 49.3044 96.5982 49.3491 96.2296L49.3938 95.6546C49.4235 95.2418 49.4533 94.6816 49.4831 93.9444L49.7661 93.9739C49.7661 94.0329 49.7809 94.2245 49.7809 94.5636C49.7958 94.9027 49.8703 95.1681 50.049 95.345C50.2128 95.5367 50.466 95.6399 50.7936 95.6694L51.5978 95.7431L51.851 92.8534C51.8808 92.5585 51.8659 92.3374 51.8361 92.1899C51.8063 92.0573 51.7169 91.9541 51.5829 91.8951C51.4489 91.8361 51.2404 91.7919 50.9574 91.7624L50.0639 91.6887C49.5576 91.6444 49.1704 91.6739 48.8874 91.7919C48.6194 91.8951 48.4109 92.1015 48.2619 92.3816C48.113 92.6617 47.9939 93.0893 47.8747 93.6495L47.5918 93.6201C47.5918 93.3989 47.6216 93.104 47.6663 92.7502Z" fill="#B1B1B1"/>
<path d="M35.9463 87.2805C36.1697 87.2363 36.4229 87.2805 36.6909 87.3984C37.0037 87.5311 37.2122 87.7228 37.3313 87.9734C37.4504 88.2388 37.4653 88.6074 37.3909 89.0939L37.1675 90.3029C37.093 90.7304 37.0483 91.0548 37.0335 91.3054C37.0186 91.5413 37.0781 91.7625 37.1824 91.9541C37.2866 92.1458 37.4802 92.2932 37.7632 92.4112L38.8354 92.8535L39.9226 90.2881C40.0417 90.008 40.1013 89.8016 40.1162 89.6542C40.131 89.5067 40.0715 89.3888 39.9672 89.2856C39.863 89.1824 39.6843 89.0792 39.4162 88.9612L39.5056 88.7401C39.8481 88.9023 40.3097 89.1087 40.9203 89.3593C41.5607 89.6247 42.0521 89.8163 42.3798 89.9196L42.2904 90.1407C42.0075 90.0375 41.799 89.9933 41.6649 89.9785C41.516 89.9785 41.3969 90.0228 41.3075 90.1407C41.2033 90.2439 41.099 90.4356 40.9799 90.7157L38.6418 96.2444C38.5227 96.5246 38.4631 96.731 38.4482 96.8784C38.4333 97.0258 38.4929 97.1438 38.5971 97.247C38.7014 97.3502 38.8801 97.4534 39.1482 97.5861L39.0588 97.8072C38.7461 97.6598 38.2993 97.4534 37.7036 97.2027C37.4058 97.0848 37.093 96.9521 36.7356 96.8047C36.3782 96.6573 36.1399 96.5688 36.0059 96.5098C35.4251 96.2592 34.9634 95.9791 34.6209 95.64C34.2784 95.3009 34.0848 94.947 33.9954 94.5637C33.9061 94.1804 33.9508 93.8118 34.1146 93.4432C34.2337 93.1483 34.4273 92.883 34.6954 92.6471C34.9634 92.4112 35.306 92.2343 35.7229 92.1458C36.1399 92.0573 36.6463 92.0721 37.1973 92.2048L37.0632 92.131C36.7505 91.9394 36.5122 91.7477 36.3633 91.5413C36.2144 91.3497 36.1101 91.1285 36.0804 90.8926C36.0357 90.6567 36.0506 90.3618 36.1101 90.008L36.3186 88.7548C36.3633 88.5042 36.3931 88.3125 36.3931 88.1651C36.3931 88.0177 36.3782 87.8997 36.3335 87.8113C36.2888 87.7228 36.2144 87.6491 36.1101 87.6196C35.991 87.5606 35.8719 87.5606 35.7676 87.5901C35.6634 87.6196 35.5144 87.6933 35.3208 87.7965L35.2017 87.6048C35.4698 87.4427 35.7229 87.3247 35.9463 87.2805ZM36.6909 92.5291C36.3335 92.5733 36.0506 92.706 35.8272 92.9272C35.6038 93.1483 35.4102 93.4432 35.2464 93.8265C34.9932 94.431 34.9337 94.9618 35.0975 95.3893C35.2613 95.8169 35.6634 96.1707 36.3335 96.4508C36.5718 96.554 36.7505 96.5983 36.8994 96.5835C37.0335 96.5835 37.1526 96.5246 37.2568 96.4066C37.3611 96.2887 37.4653 96.097 37.5696 95.8316L38.7312 93.0894L37.9717 92.7798C37.4802 92.5733 37.0483 92.4849 36.6909 92.5291Z" fill="#B1B1B1"/>
<path d="M24.3301 89.2856C24.4641 89.3298 24.5981 89.3003 24.7173 89.2266C24.8364 89.1529 25.0002 88.9907 25.1938 88.7548L28.9318 84.037C29.1254 83.8011 29.2445 83.6094 29.2892 83.4767C29.3339 83.344 29.319 83.2113 29.2445 83.0934C29.17 82.9754 29.0211 82.8133 28.7977 82.6216L28.9467 82.4299C29.2296 82.6806 29.6168 83.0049 30.138 83.403C30.689 83.8305 31.106 84.1402 31.389 84.3318L31.2401 84.5235C31.0018 84.3466 30.8082 84.2434 30.6742 84.2139C30.5401 84.1696 30.4061 84.1844 30.287 84.2728C30.1678 84.3466 30.004 84.5087 29.8104 84.7446L26.0725 89.4625C25.8789 89.6984 25.7597 89.8901 25.715 90.0227C25.6704 90.1554 25.6853 90.2881 25.7597 90.4061C25.8342 90.524 25.9831 90.6862 26.2065 90.8779L26.0576 91.0695C25.8044 90.8484 25.4023 90.524 24.8513 90.0817C24.3301 89.6836 23.9131 89.374 23.6152 89.1676L23.7642 88.976C24.0173 89.1381 24.196 89.2413 24.3301 89.2856Z" fill="#B1B1B1"/>
<path d="M14.7098 78.7883C14.6503 78.1249 14.7992 77.4614 15.1417 76.8275C15.4991 76.1788 16.0352 75.6038 16.7799 75.0583C17.5096 74.5423 18.2393 74.2032 18.9988 74.0705C19.7583 73.9378 20.4582 73.982 21.1135 74.2326C21.7688 74.4833 22.3198 74.9108 22.7516 75.5153C23.2133 76.1345 23.4665 76.7832 23.526 77.4467C23.5856 78.1101 23.4367 78.7736 23.0942 79.4075C22.7367 80.0563 22.2006 80.6312 21.456 81.1767C20.7263 81.6928 19.9966 82.0319 19.2371 82.1645C18.4925 82.2972 17.7776 82.253 17.1224 82.0024C16.4671 81.7517 15.9161 81.3242 15.4842 80.7344C15.0226 80.1005 14.7694 79.4518 14.7098 78.7883ZM16.9437 81.4126C17.4649 81.5158 18.0606 81.4716 18.7158 81.2652C19.3711 81.0588 20.0264 80.7197 20.7114 80.2184C21.3964 79.7319 21.9326 79.2011 22.3049 78.6409C22.6921 78.0806 22.9006 77.5204 22.9303 76.9896C22.975 76.4589 22.841 75.9871 22.558 75.589C22.2453 75.1762 21.8432 74.9108 21.3071 74.8076C20.7859 74.7044 20.1902 74.7487 19.5349 74.9551C18.8797 75.1615 18.2244 75.5006 17.5394 75.9871C16.8543 76.4736 16.3182 77.0044 15.9459 77.5794C15.5587 78.1396 15.3502 78.6851 15.3055 79.2306C15.2608 79.7614 15.3949 80.2332 15.6778 80.6312C15.9906 81.0441 16.4075 81.3094 16.9437 81.4126Z" fill="#B1B1B1"/>
<path d="M15.8564 61.0374C16.0351 61.1701 16.1692 61.3913 16.2585 61.6861C16.3628 61.9957 16.3479 62.2906 16.2287 62.5412C16.1096 62.8066 15.8267 63.0573 15.3948 63.3079L14.3076 63.9124C13.9353 64.1335 13.6524 64.3105 13.4588 64.4579C13.2652 64.6053 13.1312 64.7822 13.0567 64.9886C12.9822 65.1951 12.9822 65.4309 13.0716 65.7258L13.4141 66.8316L16.0947 66.0059C16.3926 65.9175 16.5862 65.829 16.7053 65.7406C16.8244 65.6521 16.884 65.5341 16.8989 65.4015C16.9138 65.2688 16.8691 65.0476 16.7947 64.7675L17.0329 64.6938C17.1223 65.0476 17.2563 65.5489 17.4648 66.1681C17.6733 66.8316 17.8371 67.3181 17.9562 67.6277L17.718 67.7014C17.6137 67.4213 17.5244 67.2296 17.435 67.1264C17.3457 67.0232 17.2265 66.9495 17.0776 66.9495C16.9287 66.9495 16.7053 66.979 16.4223 67.0822L10.6442 68.8514C10.3463 68.9399 10.1527 69.0283 10.0336 69.1168C9.91444 69.2052 9.85487 69.3232 9.83998 69.4559C9.82509 69.6033 9.86976 69.8097 9.94422 70.0898L9.70595 70.1635C9.63149 69.8392 9.49746 69.3674 9.30386 68.7482C9.2145 68.4533 9.09537 68.1142 8.97623 67.7604C8.85709 67.4065 8.76774 67.1559 8.72306 67.0232C8.52946 66.4187 8.46989 65.888 8.51457 65.4162C8.55925 64.9444 8.70817 64.5611 8.94644 64.2515C9.18472 63.9419 9.49746 63.7355 9.88465 63.6175C10.1825 63.5291 10.5101 63.4996 10.8675 63.5438C11.225 63.588 11.5675 63.7355 11.9249 64.0008C12.2823 64.2662 12.5801 64.6495 12.8333 65.1656L12.8184 65.0181C12.7737 64.6495 12.7589 64.3547 12.8184 64.104C12.878 63.8534 12.9822 63.647 13.1312 63.4701C13.295 63.2932 13.5333 63.1015 13.846 62.9246L14.948 62.2759C15.1714 62.1579 15.3501 62.04 15.4544 61.9515C15.5586 61.8631 15.648 61.7746 15.6926 61.6861C15.7373 61.5977 15.7373 61.4945 15.7075 61.3913C15.6628 61.2586 15.6033 61.1701 15.5139 61.1112C15.4246 61.0522 15.2756 60.9785 15.0672 60.9047L15.1416 60.6836C15.4395 60.7868 15.6926 60.9047 15.8564 61.0374ZM12.2972 64.9886C12.044 64.7528 11.7462 64.6201 11.4334 64.5906C11.1207 64.5611 10.7633 64.6053 10.3612 64.738C9.72084 64.9297 9.28896 65.2393 9.05069 65.6373C8.81241 66.0354 8.81241 66.5809 9.0209 67.2444C9.09537 67.4803 9.18472 67.6572 9.27407 67.7604C9.36343 67.8636 9.49746 67.9226 9.64638 67.9226C9.7953 67.9226 10.0187 67.8783 10.2867 67.8046L13.1461 66.92L12.9078 66.1386C12.7589 65.6079 12.5504 65.2245 12.2972 64.9886Z" fill="#B1B1B1"/>
<path d="M14.7097 47.046C15.2756 46.7954 15.6181 46.3236 15.7671 45.6159C15.8117 45.3505 15.8117 45.0851 15.7373 44.8345C15.6628 44.5839 15.5288 44.3627 15.3203 44.1711C15.1118 43.9794 14.8288 43.8467 14.4565 43.7877C14.1438 43.7288 13.8608 43.7582 13.5928 43.8614C13.3247 43.9646 13.0567 44.1268 12.8035 44.348C12.5503 44.5691 12.2525 44.864 11.9249 45.2326C11.5525 45.6454 11.2249 45.9845 10.942 46.2204C10.659 46.471 10.3463 46.6479 10.0038 46.7806C9.66123 46.9133 9.27403 46.9281 8.84216 46.8543C8.39539 46.7659 8.02309 46.6037 7.75503 46.3383C7.48697 46.0729 7.29337 45.7633 7.20401 45.3947C7.11466 45.0262 7.11466 44.6428 7.18912 44.23C7.2338 43.9794 7.29337 43.7877 7.36783 43.6108C7.44229 43.4339 7.51675 43.3012 7.6061 43.198C7.69546 43.0948 7.78481 42.9768 7.90395 42.8589C8.05287 42.6967 8.12733 42.5788 8.15712 42.4903C8.17201 42.4166 8.14222 42.3576 8.06776 42.2987C7.9933 42.2397 7.85927 42.1954 7.68057 42.1365L7.72524 41.8711C8.1869 41.989 8.99108 42.166 10.1676 42.3871L10.1229 42.6525C9.70591 42.6083 9.31871 42.623 8.93151 42.7115C8.55921 42.7852 8.23158 42.9474 7.96352 43.198C7.69546 43.4339 7.51675 43.773 7.44229 44.1858C7.38272 44.4659 7.39761 44.7166 7.47207 44.9672C7.54653 45.2178 7.68057 45.4095 7.85927 45.5717C8.05287 45.7338 8.27626 45.837 8.54432 45.896C8.97619 45.9697 9.3485 45.9108 9.66123 45.7044C9.97397 45.498 10.2718 45.2326 10.5548 44.923C10.8377 44.6134 11.0164 44.4069 11.1207 44.3037C11.5377 43.8614 11.8802 43.5223 12.1631 43.2717C12.4461 43.0211 12.7588 42.8442 13.1013 42.7262C13.4439 42.6083 13.8162 42.5935 14.2183 42.6672C14.7097 42.7557 15.1118 42.9474 15.4096 43.2275C15.7075 43.5223 15.9011 43.8614 16.0053 44.2743C16.1096 44.6871 16.1096 45.1294 16.0202 45.6012C15.9458 45.9845 15.8564 46.2793 15.7224 46.5152C15.6032 46.7511 15.4394 46.9575 15.2607 47.1492C15.1118 47.3114 15.0373 47.4293 15.0075 47.5178C14.9927 47.5915 15.0224 47.6505 15.0969 47.7094C15.1714 47.7684 15.3054 47.8274 15.4841 47.8716L15.4394 48.137C15.0075 48.0191 14.0544 47.8274 12.5801 47.562L12.6248 47.2966C13.4588 47.3704 14.1438 47.2966 14.7097 47.046Z" fill="#B1B1B1"/>
<path d="M11.7612 34.6173C11.3442 34.3962 10.8677 34.1898 10.3315 33.9834C10.6592 33.4084 11.2102 32.4059 11.9548 30.9758C12.6994 29.5604 13.2206 28.5578 13.5036 27.9534C13.995 28.263 14.4418 28.5284 14.8439 28.7348C15.2013 28.9264 15.514 29.0591 15.7523 29.1623L15.6183 29.413C15.0226 29.1771 14.5758 29.0296 14.2631 28.9854C13.9504 28.9264 13.6674 28.9854 13.4291 29.1328C13.1909 29.2803 12.9526 29.5751 12.7292 30.0174L12.4313 30.6072L18.5818 33.777C18.8797 33.9392 19.118 34.0129 19.2818 34.0276C19.4456 34.0424 19.5945 33.9981 19.7285 33.8802C19.8626 33.7622 20.0115 33.5411 20.1902 33.2315L20.4136 33.3494C20.1902 33.718 19.9073 34.234 19.5498 34.9122C19.1775 35.6199 18.9095 36.1654 18.7457 36.5045L18.5223 36.3865C18.6712 36.0622 18.7754 35.8116 18.7903 35.6494C18.8201 35.4725 18.7754 35.325 18.6563 35.1923C18.5372 35.0597 18.3436 34.927 18.0457 34.7648L11.8952 31.5802L11.5825 32.1552C11.3442 32.5975 11.24 32.9514 11.2549 33.2315C11.2698 33.5116 11.3889 33.7622 11.6123 33.9834C11.8357 34.2045 12.208 34.4994 12.7441 34.8385L12.6101 35.0891C12.4165 34.9712 12.1186 34.809 11.7612 34.6173Z" fill="#B1B1B1"/>
<path d="M22.2748 17.6774C22.528 17.4267 22.7365 17.1908 22.8854 17.0139L23.0641 17.1908C22.9747 17.3235 22.9301 17.5152 22.945 17.7363C22.9598 17.9575 23.0194 18.2671 23.1386 18.6357L24.4937 22.6311L26.0723 24.1792C26.2957 24.3856 26.4595 24.533 26.5936 24.592C26.7276 24.651 26.8616 24.651 26.9956 24.592C27.1297 24.533 27.2935 24.4003 27.5169 24.2087L27.6956 24.3856C27.4126 24.6362 27.0403 24.9901 26.5787 25.4471C26.0872 25.9336 25.7298 26.317 25.5064 26.5676L25.3277 26.3907C25.5213 26.1695 25.6553 26.0073 25.7149 25.8746C25.7745 25.742 25.7745 25.6093 25.7 25.4766C25.6404 25.3439 25.4915 25.167 25.283 24.9606L23.9725 23.6779L18.9985 22.2331C18.7007 22.1446 18.4773 22.1151 18.3284 22.1298C18.1794 22.1446 18.0752 22.1888 18.0007 22.2625L17.822 22.0856C18.0603 21.8792 18.3284 21.6433 18.5964 21.3632C19.1474 20.8029 19.5495 20.4049 19.7729 20.1395L19.9516 20.3164C19.5495 20.7145 19.4602 21.0241 19.6836 21.2452C19.7729 21.3337 19.892 21.3927 20.0708 21.4517L24.2555 22.7343L23.1534 19.4761C22.9896 19.0043 22.8258 18.6799 22.6471 18.5177C22.4833 18.3556 22.3046 18.3113 22.111 18.3703C21.9174 18.4293 21.694 18.5767 21.4259 18.8273L21.2472 18.6504C21.6047 18.3261 21.9323 18.0017 22.2748 17.6774Z" fill="#B1B1B1"/>
<path d="M31.2851 11.7357C31.1958 11.8389 31.1511 11.9716 31.1809 12.1191C31.2106 12.2665 31.2851 12.4729 31.434 12.7383L34.3082 18.0164C34.4572 18.2818 34.5763 18.4587 34.6954 18.5619C34.7997 18.6651 34.9337 18.6946 35.0677 18.6798C35.2018 18.6651 35.4103 18.5766 35.6634 18.4439L36.4527 18.0164C36.8995 17.7805 37.2122 17.5299 37.376 17.2792C37.5398 17.0286 37.5994 16.7485 37.5547 16.4094C37.5101 16.0703 37.376 15.6427 37.1378 15.0825L37.3909 14.9498C37.4952 15.1857 37.6441 15.4805 37.8377 15.8344C38.0611 16.2324 38.3291 16.6747 38.6568 17.1613C38.1653 17.3972 37.3314 17.8247 36.1847 18.4439C34.8146 19.1811 33.7721 19.7414 33.0871 20.1394L32.9679 19.933C33.2211 19.7856 33.3998 19.6529 33.4892 19.5497C33.5785 19.4465 33.6232 19.3138 33.5934 19.1664C33.5636 19.0189 33.4892 18.8125 33.3402 18.5471L30.4362 13.269C30.2873 13.0037 30.1682 12.8267 30.049 12.7235C29.9448 12.6203 29.8108 12.5908 29.6767 12.6056C29.5278 12.6203 29.3342 12.694 29.0662 12.8267L28.9619 12.6056C29.2747 12.4729 29.7363 12.237 30.3469 11.8979C30.9277 11.5883 31.3745 11.3377 31.6872 11.146L31.8063 11.3524C31.5532 11.4998 31.3894 11.6325 31.2851 11.7357Z" fill="#B1B1B1"/>
<path d="M49.4237 12.6792C49.513 13.1215 49.647 13.6228 49.8109 14.183C49.2598 14.2715 48.3514 14.4336 47.0707 14.6843C45.5368 14.9791 44.3901 15.215 43.6008 15.392L43.5561 15.1561C43.8391 15.0823 44.0476 15.0234 44.1667 14.9349C44.2858 14.8612 44.3603 14.7432 44.3752 14.6106C44.3901 14.4631 44.3752 14.242 44.3156 13.9471L43.154 8.06452C43.0945 7.76966 43.0349 7.56325 42.9455 7.43056C42.8562 7.29787 42.7668 7.22416 42.6179 7.20941C42.4839 7.17993 42.2605 7.19467 41.9775 7.2389L41.9329 7.00301C42.7221 6.87032 43.8837 6.66391 45.4028 6.36904C46.5792 6.13315 47.4132 5.97097 47.8898 5.85303C47.9344 6.38379 48.0089 6.85557 48.0834 7.26839C48.1429 7.578 48.2025 7.81389 48.2621 7.99081L47.994 8.04978C47.8302 7.54851 47.6813 7.17993 47.5472 6.94403C47.4132 6.70814 47.2196 6.56071 46.9962 6.48699C46.7579 6.41327 46.4452 6.41327 46.0133 6.50173L45.0156 6.6934C44.7326 6.75237 44.5241 6.81134 44.405 6.88506C44.2858 6.95878 44.2114 7.06198 44.1816 7.20941C44.1667 7.35685 44.1816 7.578 44.2412 7.87286L44.7922 10.6741L45.5815 10.5119C45.9835 10.4382 46.2218 10.2613 46.3112 9.9959C46.4005 9.73052 46.4303 9.47988 46.4154 9.22925C46.4005 8.97861 46.3856 8.81643 46.3856 8.74272L46.6537 8.68374C46.6984 9.08181 46.7579 9.4504 46.8324 9.80424L46.9515 10.3645C47.026 10.7626 47.16 11.3228 47.3536 12.0305L47.0856 12.0894C47.0707 12.0305 47.0111 11.8536 46.9069 11.5292C46.8026 11.2049 46.6537 10.9837 46.4303 10.851C46.2069 10.7183 45.9538 10.6888 45.6261 10.7478L44.8368 10.8952L45.4028 13.7407C45.4623 14.0356 45.5219 14.242 45.5964 14.3747C45.6708 14.4926 45.7751 14.5663 45.924 14.5958C46.058 14.6106 46.2814 14.5958 46.5643 14.5368L47.443 14.3599C47.9344 14.2567 48.3067 14.124 48.545 13.9471C48.7833 13.7702 48.9173 13.5196 48.9769 13.2099C49.0365 12.9003 49.0365 12.458 48.9918 11.883L49.2598 11.8241C49.3045 12.0452 49.3492 12.3253 49.4237 12.6792Z" fill="#B1B1B1"/>
<path d="M39.386 68.9841C38.701 68.07 38.1053 67.0674 37.5841 65.9617C37.0628 64.8559 36.6459 63.7354 36.3331 62.5855C35.6481 57.5285 35.6332 52.619 36.2735 47.8569C36.9139 43.0948 37.9564 38.4064 39.386 33.777C39.6243 33.261 40.1455 33.0104 40.9497 33.0104C41.7539 33.0104 42.5432 33.1873 43.3474 33.5411C44.1515 33.895 44.8068 34.3667 45.328 34.9565C45.8493 35.5462 45.9684 36.1654 45.6854 36.7994C45.2387 37.743 44.8068 39.0256 44.3749 40.6179C43.943 42.2249 43.5112 43.9941 43.124 45.9255C42.7219 47.8569 42.3794 49.8915 42.0815 51.9998C41.7837 54.108 41.5603 56.1426 41.4263 58.074C41.2922 60.0054 41.2624 61.7598 41.3369 63.3226C41.4114 64.8854 41.6496 66.1238 42.0517 67.0232C43.9282 64.5316 45.6408 61.9515 47.2044 59.2829C48.7681 56.6144 50.2276 53.9164 51.5977 51.1594C52.9677 48.4171 54.2783 45.6454 55.5143 42.8294C56.7504 40.0282 57.9715 37.2564 59.1629 34.5289C59.7586 33.143 60.3543 31.6835 60.9351 30.1502C61.5159 28.6021 62.2754 27.29 63.2434 26.1842C63.6455 25.8304 63.9582 25.7124 64.1667 25.8304C64.3901 25.9483 64.539 26.1695 64.6135 26.5086C64.6879 26.8477 64.7326 27.2015 64.7326 27.5701C64.7326 27.9387 64.7326 28.2335 64.7326 28.4252C64.4497 30.2386 64.2114 32.0373 64.0178 33.8212C63.8242 35.6052 63.3923 37.3154 62.7668 38.9814C61.7244 41.591 60.667 44.171 59.565 46.7511C58.463 49.3165 57.2865 51.8523 56.0355 54.3439C54.7846 56.8356 53.4145 59.2535 51.97 61.5976C50.5105 63.9566 48.9319 66.1976 47.2044 68.3206C45.8493 70.0161 44.4941 70.9154 43.1687 71.0186C41.7837 71.1366 40.5476 70.4436 39.386 68.9841Z" fill="#B1B1B1" stroke="white" stroke-miterlimit="10"/>
<path d="M64.0478 62.2907C63.2436 61.1849 62.4543 60.0644 61.6799 58.9145C60.9055 57.7645 60.5183 56.5113 60.5183 55.1254C60.5183 53.5921 60.9651 52.1325 61.8586 50.7614C62.7521 49.405 63.7797 48.2993 64.9413 47.4736C65.4179 47.164 65.9093 46.8987 66.4007 46.707C66.8922 46.5153 67.4283 46.5301 67.9942 46.766C68.2325 46.8839 68.4857 46.9724 68.7388 47.0313C68.992 47.0903 69.2303 47.164 69.4239 47.2378C69.6175 47.3115 69.8409 47.4294 70.0791 47.5916C70.3174 47.7538 70.4365 47.9602 70.4365 48.2403C70.4365 49.346 70.4663 50.2454 70.5259 50.9383C70.5855 51.6313 70.6748 52.221 70.794 52.7223C70.9131 53.2235 71.0322 53.6511 71.1514 54.0197C71.2705 54.403 71.3896 54.8011 71.5088 55.2286C71.5832 55.6267 71.5684 55.9658 71.4492 56.2312C71.3301 56.5113 71.0322 56.5408 70.5557 56.3491C69.677 56.0395 69.0218 55.4056 68.6048 54.4472C68.1878 53.4889 67.8751 52.6338 67.6815 51.8377C67.6368 51.6755 67.5474 51.4101 67.3836 51.012C67.2198 50.614 67.1305 50.3338 67.0858 50.1864C66.7731 50.1127 66.3859 50.2159 65.954 50.5108C65.5221 50.8056 65.12 51.2184 64.7924 51.7197C64.4499 52.2357 64.2265 52.8255 64.1371 53.5037C64.0329 54.1819 64.1669 54.8453 64.5243 55.5235C64.6881 55.7594 64.9115 56.0543 65.2094 56.3786C65.5072 56.7177 65.8051 57.0568 66.1029 57.4106C66.4008 57.7645 66.6986 58.1183 66.9964 58.4427C67.2943 58.767 67.5475 59.0471 67.7411 59.2388C67.9793 59.4747 68.1431 59.6074 68.2176 59.6221C68.2921 59.6369 68.5006 59.5927 68.8133 59.4747C69.2154 59.283 69.826 59.0177 70.645 58.7081C71.4641 58.3984 72.3279 58.0741 73.2214 57.7645C74.1149 57.4549 74.9787 57.1895 75.7978 56.9683C76.6168 56.7472 77.2423 56.644 77.6891 56.644C77.972 56.644 78.1656 56.7472 78.2848 56.9389C78.4039 57.0568 78.389 57.219 78.2252 57.4106C78.0614 57.6023 77.8529 57.8087 77.5997 58.0004C77.3465 58.192 77.0636 58.369 76.7955 58.5311C76.5126 58.6933 76.3339 58.7818 76.2594 58.826C75.5744 59.2241 74.7255 59.6664 73.6831 60.1676C72.6406 60.6542 71.7471 61.1407 70.9876 61.6125C70.9131 61.6862 70.7642 61.7747 70.5408 61.8484C70.3174 61.9221 70.1536 62.0106 70.0345 62.0843C70.511 63.1458 70.8535 64.0746 71.0471 64.8413C71.2407 65.6079 71.3152 66.3451 71.2556 67.0675C71.1961 67.7752 71.0471 68.4976 70.8089 69.2348C70.5706 69.9719 70.2429 70.8123 69.8557 71.7559C69.2898 72.67 68.7239 73.5398 68.1431 74.3655C67.5623 75.1911 66.922 75.943 66.1923 76.6212C65.4774 77.2994 64.6881 77.8301 63.8542 78.2135C63.0202 78.6115 62.0969 78.8032 61.0991 78.8032C60.5332 78.8032 59.9971 78.7295 59.4759 78.5968C58.9546 78.4641 58.5228 78.1692 58.1653 77.7417C57.242 76.7539 56.7357 75.6776 56.6165 74.5129C56.4974 73.3482 56.6017 72.1982 56.9144 71.0482C57.1527 70.3405 57.4505 69.6918 57.8079 69.0873C58.6866 67.5835 59.6546 66.3156 60.7119 65.2688C61.7842 64.2368 62.8862 63.2343 64.0478 62.2907ZM66.088 64.9592C65.6412 65.4015 65.0456 66.0207 64.2861 66.8316C63.5265 67.6425 62.8266 68.5271 62.1565 69.4707C61.5012 70.4142 60.9651 71.3578 60.5481 72.2866C60.1311 73.2155 60.0269 74.0116 60.2205 74.6898C61.0247 74.336 61.8437 73.7462 62.6777 72.9354C63.5117 72.1245 64.2563 71.2399 64.8966 70.2668C65.537 69.2938 65.9838 68.3354 66.2369 67.3919C66.4901 66.4335 66.4454 65.6227 66.088 64.9592Z" fill="#B1B1B1" stroke="white" stroke-miterlimit="10"/>
<path d="M54.3376 86.2926C35.7074 86.2926 20.5471 71.2839 20.5471 52.84C20.5471 34.3961 35.7074 19.3875 54.3376 19.3875C72.9678 19.3875 88.1281 34.3961 88.1281 52.84C88.1281 71.2839 72.9678 86.2926 54.3376 86.2926ZM54.3376 20.8618C36.5265 20.8618 22.0363 35.207 22.0363 52.84C22.0363 70.473 36.5265 84.8183 54.3376 84.8183C72.1487 84.8183 86.6389 70.473 86.6389 52.84C86.6389 35.207 72.1487 20.8618 54.3376 20.8618Z" fill="#B1B1B1"/>
</g>
</svg>
