<svg width="172" height="45" viewBox="0 0 172 45" fill="none" xmlns="http://www.w3.org/2000/svg">
<path d="M37.0146 44.9306H9.03582C4.43796 44.9306 0.71167 41.2415 0.71167 36.6896V8.99067C0.71167 4.43879 4.43796 0.749756 9.03582 0.749756H37.0146C41.6125 0.749756 45.3387 4.43879 45.3387 8.99067V36.6896C45.3387 41.2415 41.6125 44.9306 37.0146 44.9306Z" fill="#B1B1B1"/>
<path d="M31.065 23.2467C31.8608 24.2346 32.265 25.385 32.265 26.6856C32.265 28.5989 31.6208 30.0995 30.3324 31.1624C29.044 32.2254 27.1998 32.7756 24.7998 32.7756H14.3157V10.4539H24.5472C26.8461 10.4539 28.6145 10.9541 29.865 11.942C31.1156 12.9299 31.7471 14.343 31.7471 16.1687C31.7471 17.5193 31.3808 18.6322 30.6608 19.5326C29.9408 20.433 28.9935 21.0082 27.8187 21.2833C29.1956 21.6085 30.2692 22.2588 31.065 23.2467ZM19.7598 19.5826H23.3346C25.2293 19.5826 26.1766 18.7823 26.1766 17.1817C26.1766 15.581 25.204 14.7806 23.2714 14.7806H19.7598V19.5826ZM26.6819 25.9353C26.6819 25.1349 26.4167 24.5097 25.8861 24.0595C25.3556 23.6093 24.5977 23.3842 23.6251 23.3842H19.7725V28.3988H23.663C25.6714 28.3863 26.6819 27.5735 26.6819 25.9353Z" fill="white"/>
<path d="M71.1955 32.7756L66.3197 24.3471H65.0818V32.7756H59.625V10.4539H68.9344C70.7154 10.4539 72.2312 10.754 73.4565 11.3667C74.6944 11.9795 75.6165 12.8173 76.2354 13.8803C76.8544 14.9432 77.1575 16.1562 77.1575 17.5318C77.1575 19.1575 76.7028 20.533 75.8059 21.671C74.8965 22.809 73.5954 23.5843 71.8649 24.0095L77.2207 32.7881H71.1955V32.7756ZM65.0818 20.6581H68.4544C69.5407 20.6581 70.3365 20.4205 70.8418 19.9453C71.347 19.4701 71.6123 18.7698 71.6123 17.8444C71.6123 16.9566 71.347 16.2688 70.8291 15.7561C70.3112 15.2558 69.5154 14.9932 68.4544 14.9932H65.0818V20.6581Z" fill="#B1B1B1"/>
<path d="M101.84 28.7114H93.3893L91.9872 32.7881H86.2524L94.5135 10.6289H100.791L109.052 32.7881H103.254L101.84 28.7114ZM100.438 24.5972L97.6334 16.3938L94.7913 24.5972H100.438Z" fill="#B1B1B1"/>
<path d="M139.153 32.7756H133.696L124.576 19.0699V32.7756H119.119V10.4539H124.576L133.696 24.2846V10.4539H139.153V32.7756Z" fill="#B1B1B1"/>
<path d="M169.747 27.3983C168.799 29.0865 167.435 30.4121 165.667 31.3625C163.886 32.3129 161.801 32.7881 159.401 32.7881H150.888V10.4663H159.401C161.827 10.4663 163.923 10.929 165.679 11.8544C167.448 12.7798 168.799 14.0803 169.747 15.7685C170.694 17.4567 171.161 19.3825 171.161 21.5834C171.161 23.7593 170.681 25.6976 169.747 27.3983ZM163.873 26.2728C165.048 25.1599 165.641 23.5842 165.641 21.5709C165.641 19.5451 165.048 17.9819 163.873 16.869C162.698 15.756 161.043 15.1933 158.909 15.1933H156.332V27.9486H158.909C161.043 27.9486 162.698 27.3983 163.873 26.2728Z" fill="#B1B1B1"/>
</svg>
