<svg width="152" height="46" viewBox="0 0 152 46" fill="none" xmlns="http://www.w3.org/2000/svg">
<path d="M21.2782 9.20395L22.3951 8.96805C22.6781 8.96805 22.9164 9.02703 23.0802 9.14497C23.244 9.26292 23.3333 9.38087 23.3333 9.48407C23.3333 9.58727 23.3036 9.74945 23.2589 9.94111C23.2142 10.1328 22.7972 12.1084 22.0228 15.8384C21.2484 19.5685 20.6825 22.355 20.3251 24.1832C22.0526 21.8537 24.078 18.9935 26.3863 15.5878C28.6945 12.1821 30.0497 9.92637 30.4369 8.80588C30.5561 8.45204 30.7199 8.18666 30.9135 7.99499C31.1071 7.80333 31.2858 7.68539 31.4347 7.6559C31.5836 7.62641 31.8219 7.59692 32.1347 7.59692C32.4474 7.59692 32.8197 7.67064 33.2516 7.80333C33.6835 7.93602 33.9068 8.15717 33.9068 8.48152C33.9068 9.07126 33.0133 10.7962 31.2411 13.6269C29.4689 16.4577 27.4287 19.4653 25.1353 22.6498C22.8419 25.8344 20.9357 28.3555 19.4018 30.2132C19.1337 30.5375 18.7912 30.7144 18.404 30.7144C18.0168 30.7144 17.5998 30.6407 17.168 30.508C16.7361 30.3754 16.5127 30.1395 16.5127 29.7856C16.5127 28.6799 17.4956 23.3428 19.4613 13.8039C17.7785 15.9564 15.7383 18.964 13.3406 22.812C10.8387 26.7927 9.42399 29.2696 9.09636 30.2132C8.91766 30.7882 8.70917 31.1273 8.47089 31.2157C8.30708 31.2894 8.12836 31.3189 7.94965 31.3189L6.74339 31.4516C6.50511 31.4516 6.29661 31.3926 6.08812 31.2599C5.89452 31.1273 5.79028 30.9946 5.79028 30.8471C5.79028 30.4491 6.3562 29.2401 7.47311 27.235C8.59003 25.2299 9.91543 23.0479 11.4195 20.689C12.9237 18.3301 14.4874 16.0448 16.1255 13.8186C17.7636 11.5924 19.0295 10.0885 19.923 9.33664C20.1017 9.17446 20.3102 9.10074 20.5485 9.10074L21.2782 9.20395Z" fill="#B1B1B1"/>
<path d="M39.1784 19.2C39.9528 19.2 40.34 19.4654 40.34 19.9814C40.34 20.2616 40.2804 20.468 40.1464 20.6006C40.0124 20.7333 39.7294 21.1609 39.2976 21.9128C38.8657 22.65 38.3891 23.5935 37.8679 24.7583C37.3467 25.9082 37.0042 26.896 36.8552 27.7069C36.8255 27.8101 36.8106 27.9428 36.8106 28.1345C36.8106 28.6947 36.9595 28.9601 37.2722 28.9601C37.585 28.9601 37.9424 28.8127 38.3594 28.5326C38.7763 28.2377 39.1486 27.9428 39.4763 27.6037C39.8039 27.2794 40.1166 26.9403 40.4294 26.6012C40.7421 26.2621 40.9208 26.0557 40.9804 26.0114C41.04 25.9672 41.1293 25.9377 41.2485 25.9377C41.4421 25.9377 41.5612 26.0852 41.6059 26.38C41.6506 26.6749 41.6654 26.9698 41.6654 27.2941C41.6654 27.6185 41.6357 27.8249 41.5761 27.9428C41.2782 28.5178 40.6379 29.2107 39.6252 30.0216C38.6274 30.8325 37.7041 31.2306 36.885 31.2306C36.066 31.2306 35.4554 30.9799 35.0831 30.4934C34.7108 30.0069 34.5023 29.4466 34.5023 28.8569C34.5023 28.2524 34.6065 27.7364 34.815 27.2794C33.9662 28.3704 32.9981 29.2845 31.911 30.0511C30.809 30.803 29.9304 31.1863 29.2304 31.1863C28.5305 31.1863 27.9795 30.9799 27.5327 30.5671C26.9668 30.0511 26.6987 29.3434 26.6987 28.4293C26.6987 27.5153 26.9072 26.6012 27.3242 25.6723C27.7412 24.7583 28.2773 23.9031 28.9475 23.1512C29.6176 22.3846 30.3622 21.6916 31.1664 21.0724C32.8492 19.7603 34.4129 19.1116 35.8426 19.1116C36.3936 19.1116 36.8404 19.2 37.1829 19.377C37.5254 19.5539 37.7488 19.7898 37.8381 20.0551C38.0764 19.6866 38.2849 19.4654 38.4636 19.3622C38.5976 19.2443 38.8508 19.2 39.1784 19.2ZM37.1531 20.8808C35.4107 20.8808 33.6087 21.8391 31.7472 23.7557C31.0919 24.4486 30.4814 25.2595 29.9155 26.2179C29.3496 27.1762 29.0815 27.8249 29.0815 28.1787C29.0815 28.5325 29.1858 28.7095 29.3942 28.7095C29.6772 28.7095 30.4665 28.1492 31.777 27.0435C33.0875 25.9377 33.9513 25.1121 34.3682 24.5813C34.8448 23.9916 35.7681 22.7532 37.1531 20.8808Z" fill="#B1B1B1"/>
<path d="M50.7649 11.209L51.3904 11.3564C51.4797 11.3564 51.5691 11.4006 51.6286 11.4891C51.7031 11.5776 51.7329 11.666 51.7329 11.7397C51.7329 11.8135 51.6286 12.0346 51.4053 12.3884C51.1819 12.7423 50.9436 13.1404 50.6457 13.5827C50.3479 14.025 50.199 14.2756 50.1841 14.3198C50.9734 14.2609 51.5393 14.2314 51.8669 14.2314C52.1945 14.2314 52.4179 14.2609 52.5519 14.3051C52.6711 14.3493 52.82 14.482 52.9689 14.6884C53.1327 14.8948 53.2668 15.057 53.4008 15.1602C53.5348 15.2634 53.5944 15.4256 53.5944 15.632C53.5944 15.8384 53.4604 16.0301 53.2072 16.1627C52.954 16.3102 52.6711 16.3986 52.3732 16.4281C50.0054 16.664 48.7098 16.782 48.4715 16.7967C47.6524 18.0499 46.4908 19.996 45.0165 22.6351C43.5421 25.2741 42.7529 26.9401 42.6635 27.6036C42.6188 27.9132 42.6039 28.1491 42.6039 28.3407C42.6039 28.7388 42.8124 28.9305 43.2294 28.9305C43.6464 28.9305 44.108 28.7683 44.6144 28.4587C45.1207 28.1343 45.5973 27.7952 46.0143 27.4266C47.161 26.4241 47.7716 25.9081 47.846 25.9081C48.1141 25.9081 48.2481 26.3651 48.2481 27.2645C48.2481 27.751 48.0247 28.1933 47.5631 28.5914C46.5355 29.4612 45.6717 30.1247 44.9718 30.567C44.2719 31.0093 43.5719 31.2304 42.8571 31.2304C42.7082 31.2304 42.5593 31.2157 42.4252 31.1862C41.6062 31.0387 41.0105 30.7439 40.6382 30.3016C40.251 29.8593 40.0723 29.2696 40.0723 28.5324C40.0723 27.7952 40.2956 26.8811 40.7424 25.8196C41.1892 24.7581 41.7402 23.6229 42.4103 22.4287C43.5124 20.4678 44.6144 18.6396 45.7015 16.9294L45.1207 17.0031C43.9442 17.1358 43.2592 17.1948 43.0656 17.1948H42.9316C42.6337 17.1948 42.3508 17.1358 42.0827 17.0178C41.8146 16.8999 41.6657 16.7525 41.6657 16.5903C41.6657 16.4134 41.7402 16.2512 41.8891 16.089C42.038 15.9268 42.1274 15.7942 42.1572 15.7057C42.2316 15.4845 42.4997 15.2339 42.9613 14.9685C43.423 14.7031 43.7655 14.5557 44.0038 14.541C44.2421 14.5262 44.4655 14.5115 44.6888 14.4967C44.9122 14.482 45.1505 14.482 45.4186 14.4673C45.6866 14.4525 45.8951 14.4525 46.044 14.4378L47.4141 14.3788C48.263 13.1109 48.8587 12.2852 49.1714 11.9314C49.4991 11.5628 49.6778 11.3712 49.7224 11.3417C49.7671 11.3122 49.8713 11.2827 50.0352 11.2827L50.7649 11.209Z" fill="#B1B1B1"/>
<path d="M59.9233 25.9377C60.1169 25.9377 60.236 26.0851 60.2807 26.38C60.3254 26.6748 60.3403 26.9697 60.3403 27.2941C60.3403 27.6184 60.3105 27.8248 60.2509 27.9428C59.953 28.503 59.3127 29.1959 58.3149 30.0068C57.3171 30.8177 56.364 31.2305 55.4705 31.2305C54.9195 31.2305 54.4131 31.0683 53.9366 30.744C53.4749 30.4196 53.2367 29.8447 53.2367 29.0338C53.2367 28.2229 53.46 27.412 53.8919 26.6306C51.3602 29.7709 49.3945 31.3337 47.9499 31.3337C47.384 31.3337 46.9224 31.1273 46.5649 30.7293C46.2075 30.3312 46.0437 29.9184 46.0437 29.4761C46.0437 29.0485 46.1033 28.6062 46.2224 28.1492C46.3415 27.6921 46.4756 27.2793 46.6096 26.9107C46.7436 26.5422 46.9521 26.0999 47.2202 25.5691C47.4882 25.0383 47.6967 24.655 47.8159 24.4044C47.935 24.1537 48.1584 23.7999 48.4562 23.3134C48.7541 22.8268 49.1264 22.1634 49.6029 21.3378C50.0795 20.5121 50.4667 19.8929 50.7794 19.4948C51.0922 19.0968 51.39 18.8904 51.6878 18.8904C51.9857 18.8904 52.2389 19.0083 52.4623 19.2442C52.6856 19.4801 52.8048 19.6865 52.8048 19.8339C52.8048 19.9814 52.4623 20.6596 51.7772 21.8685C49.7668 25.4806 48.7541 27.5742 48.7541 28.1787C48.7541 28.3261 48.8136 28.3998 48.9179 28.3998C49.4093 28.3998 50.6305 27.353 52.5665 25.2595C54.5025 23.1659 55.6343 21.8243 55.947 21.2346C56.2598 20.6448 56.5427 20.1435 56.8406 19.7455C57.1235 19.3474 57.3469 19.0968 57.4958 19.0083C57.9277 18.7282 58.4936 18.5808 59.1936 18.5513C59.3127 18.5513 59.3871 18.5513 59.4467 18.566C59.5063 18.5808 59.5807 18.6692 59.6552 18.8166C59.7297 18.9641 59.7743 19.0968 59.7743 19.2C59.685 19.4801 59.2829 20.232 58.5532 21.4557C57.8383 22.6794 57.4363 23.3723 57.3618 23.5198C56.1555 25.9819 55.5598 27.5889 55.5598 28.3261C55.5598 28.7536 55.7237 28.9601 56.0513 28.9601C56.647 28.8863 57.3618 28.4145 58.1958 27.5594C58.5085 27.2498 58.8064 26.9255 59.1042 26.6011C59.402 26.2768 59.5956 26.0851 59.6552 26.0409C59.7297 25.9672 59.819 25.9377 59.9233 25.9377Z" fill="#B1B1B1"/>
<path d="M64.3463 22.4436C66.7439 19.7456 68.7991 18.3892 70.4819 18.3892C70.8989 18.3892 71.2414 18.5071 71.5095 18.7578C71.7775 19.0084 71.9115 19.318 71.9115 19.7161C71.9115 20.1142 71.6286 20.7629 71.0627 21.6917C70.4968 22.6058 69.9755 23.3872 69.499 24.0211C69.2458 24.3455 68.9629 24.5077 68.6352 24.5077C68.3225 24.5077 68.0693 24.3897 67.8906 24.1538C67.7119 23.9179 67.6226 23.6526 67.6226 23.343C67.6226 22.65 67.9949 21.8539 68.7544 20.984L68.7246 20.9545C68.3821 20.984 67.563 21.6475 66.2227 22.9154C64.8973 24.1981 63.7655 25.348 62.8273 26.3506C61.904 27.3679 60.8913 28.5916 59.7893 30.0512C59.4765 30.4787 59.2085 30.6999 58.9851 30.6999C58.7617 30.6999 58.4787 30.6262 58.1213 30.4935C57.7639 30.3608 57.5405 30.2576 57.4661 30.1986C57.3916 30.1396 57.3469 30.0364 57.3469 29.889C57.3469 29.7563 57.3916 29.5794 57.4661 29.4025C57.5405 29.2108 57.7043 28.9454 57.9128 28.6063C58.1213 28.2672 58.4638 27.707 58.9106 26.9403C59.3574 26.1737 60.0424 25.009 60.9806 23.4609C61.9188 21.9129 62.4699 20.9693 62.6635 20.6449C63.0507 19.9815 63.3634 19.4949 63.6166 19.2001C64.0782 18.6251 64.8526 18.345 65.9398 18.345C66.178 18.345 66.3121 18.4924 66.3121 18.802C66.3121 19.2738 65.8653 20.1731 64.9866 21.4706L64.3463 22.4436Z" fill="#B1B1B1"/>
<path d="M80.7727 19.377C80.7727 20.0404 80.5046 20.6302 79.9536 21.1314C79.4026 21.6327 78.792 21.8833 78.0921 21.8833C77.8687 21.8833 77.7198 21.8244 77.6453 21.7212C77.5709 21.618 77.5411 21.4705 77.5411 21.3084C77.5411 21.1462 77.556 20.9693 77.6007 20.8071C77.2283 20.925 76.8262 21.1167 76.3795 21.3673C75.9327 21.618 75.3817 21.9865 74.7264 22.4878C74.0712 22.9891 73.7436 23.3429 73.7436 23.5936C73.7436 23.6673 73.8627 23.7115 74.101 23.7115C74.3392 23.7115 74.7116 23.6231 75.203 23.4609C75.6944 23.2987 76.0519 23.2102 76.2455 23.2102C76.4391 23.2102 76.5731 23.225 76.6326 23.2397C76.7667 23.3134 76.9007 23.4609 77.0645 23.6968C77.2135 23.9327 77.2879 24.1243 77.2879 24.257C77.2879 24.3897 77.1539 24.5666 76.8858 24.7878C76.6178 25.0089 76.3199 25.1711 75.9923 25.289C75.6498 25.407 75.4264 25.4955 75.3221 25.5544C73.1777 26.7486 72.1054 27.5595 72.1054 28.0018C72.1054 28.7832 72.7756 29.1813 74.1308 29.1813C74.9945 29.1813 75.8731 28.9159 76.7369 28.3704C77.4815 27.9134 78.1517 27.4416 78.7474 26.955C79.3431 26.4833 79.7153 26.1884 79.8792 26.0704C80.043 25.9525 80.1621 25.9083 80.2366 25.9083C80.5046 25.9083 80.6387 26.2031 80.6387 26.7929C80.6387 27.3826 80.6089 27.7659 80.5344 27.9428C80.46 28.1345 80.2664 28.3557 79.9238 28.6358C77.7496 30.3902 75.6796 31.2748 73.7436 31.2748C72.7011 31.2748 71.882 31.1274 71.2565 30.8473C70.1098 30.3313 69.5439 29.5499 69.5439 28.4884C69.5439 27.1025 70.512 26.041 72.4628 25.3333C72.0756 25.1564 71.8225 24.95 71.7182 24.6698C71.5991 24.4045 71.5544 23.9769 71.5544 23.3872C71.5544 22.7974 71.8374 22.1782 72.3884 21.5148C72.9394 20.8513 73.6244 20.3058 74.4286 19.893C76.2157 18.9347 77.824 18.4629 79.2239 18.4629C79.5664 18.4629 79.8941 18.5366 80.2515 18.6988C80.6089 18.861 80.7727 19.0821 80.7727 19.377Z" fill="#B1B1B1"/>
<path d="M115.531 9.11553H115.724C115.784 9.11553 115.829 9.11553 115.844 9.13027C115.858 9.14502 115.873 9.14502 115.903 9.15976C115.933 9.15976 115.948 9.1745 115.978 9.20399C116.022 9.24822 116.097 9.29245 116.186 9.33668C116.305 9.42514 116.365 9.52834 116.365 9.64629C116.365 9.76424 116.246 10.0149 116.007 10.3982C115.769 10.7815 115.159 11.7104 114.161 13.2142C111.882 16.6641 109.842 19.8782 108.04 22.8268C104.928 27.9575 103.349 30.5376 103.319 30.5671C103.289 30.5965 103.275 30.626 103.26 30.6555C103.245 30.7145 103.215 30.744 103.141 30.744L102.932 30.6997L102.515 30.803L102.277 30.7587L102.024 30.803H101.934L101.085 30.9209C100.579 30.9209 100.326 30.744 100.326 30.4049C100.326 30.2574 100.371 30.0805 100.46 29.8741C100.773 29.137 102.366 26.4684 105.225 21.839C103.349 21.8832 101.487 21.9127 99.6557 21.9127L96.3795 21.898C95.8433 22.7531 95.0987 23.9621 94.1605 25.5396C92.1352 28.9748 91.0629 30.6997 90.9289 30.7292C90.7949 30.7587 90.6906 30.7882 90.6013 30.7882C90.5119 30.7882 90.4375 30.744 90.3779 30.6408C90.3034 30.5523 90.2587 30.4933 90.229 30.4933C90.1992 30.4933 90.1545 30.5081 90.0651 30.5523C89.9907 30.5965 89.8716 30.6113 89.7077 30.6113L89.3503 30.5965L89.2163 30.5081C89.2014 30.5081 89.1865 30.5228 89.1716 30.5523C89.1567 30.5818 89.112 30.5965 89.0525 30.5965C88.6206 30.5965 88.3972 30.4196 88.3972 30.051C88.3972 29.8151 88.4866 29.4908 88.6504 29.0927C88.8291 28.6947 89.0525 28.2671 89.3354 27.8101C89.6184 27.353 90.3332 26.2473 91.5097 24.5223C92.6713 22.7973 93.2521 21.9275 93.2521 21.9127C93.0585 21.898 92.8351 21.898 92.5819 21.8832C92.0607 21.8832 91.7033 21.8685 91.4799 21.8243C90.8991 21.7211 90.497 21.2493 90.2885 20.4089C90.1694 19.9961 90.1247 19.7307 90.1396 19.598C90.1396 19.3326 90.2588 19.1852 90.497 19.1852L90.8991 19.2884C91.1076 19.3032 91.5842 19.3179 92.3586 19.3621C93.133 19.4064 93.684 19.4211 94.0265 19.4211L94.8902 19.3916C96.2156 17.3423 97.7942 15.0129 99.6409 12.418C98.3006 13.509 96.8113 14.0545 95.1732 14.0545C94.3988 14.0545 93.7286 13.8776 93.1776 13.509C92.6117 13.1405 92.3437 12.6687 92.3437 12.1084C92.3437 11.5482 92.5522 11.1059 92.984 10.7668C93.4159 10.4424 93.818 10.2803 94.2052 10.2803C94.5924 10.2803 94.786 10.3392 94.786 10.4572C94.786 10.5014 94.7264 10.5456 94.6222 10.5899C94.5179 10.6488 94.4583 10.6931 94.4583 10.7373C94.4583 10.8995 94.6371 11.0469 94.9945 11.1649C95.3519 11.2828 95.754 11.3565 96.2007 11.3565C96.6475 11.3565 97.1836 11.2238 97.8389 10.9732C98.4942 10.7226 99.1643 10.3835 99.8642 9.98539C100.847 9.42514 101.622 8.95335 102.187 8.58477C102.515 8.42259 102.813 8.34888 103.111 8.34888C103.409 8.34888 103.602 8.37836 103.736 8.45208C103.87 8.51105 103.96 8.58477 104.019 8.64374C104.079 8.70272 104.153 8.79118 104.213 8.89438C104.287 8.99758 104.347 9.08604 104.421 9.13027C104.481 9.18925 104.526 9.24822 104.526 9.32194C104.526 9.39565 104.481 9.49886 104.406 9.66103C104.332 9.80847 103.945 10.4277 103.245 11.5039C102.545 12.5802 101.636 13.9513 100.534 15.6173C99.4324 17.2833 98.6282 18.507 98.1218 19.3032C100.847 19.3032 103.781 19.2589 106.938 19.1557C110.78 13.1552 112.806 10.0149 113.014 9.72001C113.223 9.42514 113.416 9.23348 113.595 9.14502C113.774 9.05656 113.982 9.01233 114.235 9.01233L115.531 9.11553Z" fill="#B1B1B1"/>
<path d="M120.505 19.1704C120.818 19.1704 121.131 19.3031 121.444 19.5832C121.771 19.8633 121.92 20.2761 121.92 20.8364C121.92 21.3966 121.727 22.119 121.324 23.0184C120.922 23.903 120.386 24.8171 119.686 25.7459C119.001 26.66 118.227 27.5298 117.408 28.3407C116.574 29.1516 115.68 29.8151 114.727 30.3311C113.759 30.8471 112.895 31.1125 112.106 31.1125C111.317 31.1125 110.691 30.8618 110.215 30.3753C109.738 29.8888 109.5 29.2106 109.5 28.3407C109.5 27.4709 109.723 26.4978 110.155 25.451C110.587 24.3895 111.138 23.4607 111.823 22.6498C112.508 21.8389 113.238 21.1165 114.042 20.4678C115.695 19.1409 117.155 18.4922 118.406 18.4922C118.971 18.4922 119.388 18.6249 119.671 18.905C119.776 18.9935 119.82 19.0819 119.82 19.1409V19.2294C119.984 19.1704 120.208 19.1704 120.505 19.1704ZM118.971 21.1755H118.867C118.51 21.1755 118.331 20.9248 118.331 20.4088C117.586 20.6447 116.812 21.0723 115.993 21.6767C115.174 22.2812 114.444 23.0036 113.804 23.8293C112.493 25.4805 111.838 26.8811 111.823 28.0164C111.823 28.5766 112.032 28.8567 112.449 28.8567C112.866 28.8567 113.491 28.5766 114.31 28.0459C115.129 27.5151 115.948 26.7337 116.767 25.7164C117.572 24.7139 118.182 23.8293 118.584 23.0921C118.986 22.3549 119.195 21.8537 119.195 21.5735C119.18 21.3082 119.105 21.1755 118.971 21.1755Z" fill="#B1B1B1"/>
<path d="M121.592 30.7733L120.847 30.7439H120.579C120.475 30.7144 120.371 30.6554 120.252 30.5669C120.133 30.4785 120.043 30.4048 119.984 30.3753C119.924 30.3458 119.894 30.2573 119.894 30.1541C119.894 30.0509 119.939 29.8593 120.013 29.6086C121.994 25.2888 123.915 21.8241 125.777 19.2441C125.985 18.9639 126.313 18.7428 126.76 18.5954C127.206 18.4479 127.653 18.3742 128.085 18.3742C128.338 18.3742 128.472 18.5659 128.472 18.9639C128.472 19.0819 128.428 19.2293 128.353 19.4062C128.279 19.5979 128.07 19.8928 127.743 20.3203C127.415 20.7479 127.028 21.2344 126.581 21.7652C126.134 22.2959 125.881 22.6203 125.821 22.7087C127.221 21.2786 128.472 20.2171 129.604 19.5094C130.736 18.8165 131.54 18.4627 132.046 18.4627C132.553 18.4627 132.94 18.6101 133.208 18.8902C133.476 19.1704 133.61 19.48 133.61 19.8043C133.61 20.1287 133.58 20.4088 133.536 20.6152C133.491 20.8363 133.402 21.0575 133.282 21.2934C133.163 21.5293 133.059 21.7357 132.97 21.8979C132.88 22.06 132.731 22.2812 132.538 22.5466C132.329 22.8119 132.195 23.0036 132.121 23.1068C132.046 23.21 131.883 23.4017 131.644 23.6818C131.406 23.9619 131.272 24.1241 131.257 24.1536C131.54 23.8735 131.942 23.4607 132.448 22.9004C132.955 22.3402 133.387 21.8831 133.744 21.5145C134.101 21.146 134.533 20.7184 135.069 20.2466C135.606 19.7748 136.097 19.3915 136.544 19.1114C137.646 18.4332 138.763 18.0793 139.895 18.0793C140.282 18.0793 140.609 18.1973 140.877 18.4479C141.146 18.6986 141.28 18.9787 141.28 19.3178C141.28 19.6569 140.863 20.4678 140.043 21.7357C139.224 23.0036 138.39 24.2863 137.571 25.569C136.752 26.8516 136.335 27.6625 136.335 28.0016C136.335 28.4586 136.425 28.7388 136.588 28.8272C136.767 28.9157 136.976 28.9452 137.214 28.9304C137.452 28.9157 137.81 28.7535 138.242 28.4586C138.688 28.1638 139.075 27.8689 139.418 27.5446C139.984 27.0433 140.49 26.5568 140.982 26.085C141.086 25.9965 141.19 25.9523 141.324 25.9523C141.518 25.9523 141.637 26.0997 141.682 26.3946C141.726 26.6894 141.741 26.9843 141.741 27.3087C141.741 27.633 141.711 27.8394 141.652 27.9574C141.354 28.5176 140.699 29.2106 139.701 30.0362C138.688 30.8471 137.72 31.2599 136.797 31.2599C136.678 31.2599 136.603 31.2599 136.559 31.2451C135.516 31.1419 134.787 30.8618 134.384 30.39C133.982 29.9182 133.789 29.358 133.789 28.724C133.789 28.0901 134.012 27.2939 134.459 26.3798C134.906 25.4657 135.382 24.6254 135.918 23.8882C136.454 23.151 136.931 22.4729 137.378 21.8684C137.825 21.2639 138.048 20.9395 138.048 20.8953C138.048 20.8511 138.003 20.8216 137.929 20.8216C137.616 20.8216 136.916 21.3229 135.814 22.3402C133.953 24.0651 132.344 25.7311 130.989 27.3234C130.632 27.751 129.783 28.8125 128.457 30.5374C128.308 30.7439 128.055 30.8471 127.728 30.8471C127.4 30.8471 127.057 30.7881 126.7 30.6554C126.343 30.5227 126.164 30.3605 126.164 30.1689C126.164 30.0657 126.968 28.6503 128.591 25.9228C130.215 23.1953 131.019 21.7062 131.019 21.4703C131.019 21.2197 130.87 21.1017 130.572 21.1017C130.274 21.1017 129.649 21.544 128.71 22.4286C126.134 24.8613 124.139 27.2939 122.724 29.6971C122.634 29.8445 122.456 30.0657 122.188 30.3605C121.92 30.6554 121.681 30.7733 121.592 30.7733Z" fill="#B1B1B1"/>
<path d="M151.124 19.377C151.124 20.0404 150.856 20.6302 150.305 21.1314C149.754 21.6327 149.143 21.8833 148.443 21.8833C148.22 21.8833 148.071 21.8244 147.996 21.7212C147.922 21.618 147.892 21.4705 147.892 21.3084C147.892 21.1462 147.907 20.9693 147.952 20.8071C147.579 20.925 147.177 21.1167 146.731 21.3673C146.284 21.618 145.733 21.9865 145.078 22.4878C144.422 22.9891 144.095 23.3429 144.095 23.5936C144.095 23.6673 144.214 23.7115 144.452 23.7115C144.69 23.7115 145.063 23.6231 145.554 23.4609C146.046 23.2987 146.403 23.2102 146.597 23.2102C146.79 23.2102 146.924 23.225 146.984 23.2397C147.118 23.3134 147.252 23.4609 147.416 23.6968C147.565 23.9327 147.639 24.1243 147.639 24.257C147.639 24.3897 147.505 24.5666 147.237 24.7878C146.969 25.0089 146.671 25.1711 146.343 25.289C146.001 25.407 145.777 25.4955 145.673 25.5544C143.529 26.7486 142.456 27.5595 142.456 28.0018C142.456 28.7832 143.127 29.1813 144.482 29.1813C145.346 29.1813 146.224 28.9159 147.088 28.3704C147.833 27.9134 148.503 27.4416 149.098 26.955C149.694 26.4833 150.066 26.1884 150.23 26.0704C150.394 25.9525 150.513 25.9083 150.588 25.9083C150.856 25.9083 150.99 26.2031 150.99 26.7929C150.99 27.3826 150.96 27.7659 150.885 27.9428C150.811 28.1345 150.617 28.3557 150.275 28.6358C148.101 30.3902 146.031 31.2748 144.095 31.2748C143.052 31.2748 142.233 31.1274 141.608 30.8473C140.461 30.3313 139.895 29.5499 139.895 28.4884C139.895 27.1025 140.863 26.041 142.814 25.3333C142.427 25.1564 142.174 24.95 142.069 24.6698C141.95 24.4045 141.905 23.9769 141.905 23.3872C141.905 22.7974 142.188 22.1782 142.739 21.5148C143.29 20.8513 143.975 20.3058 144.78 19.893C146.567 18.9347 148.175 18.4629 149.575 18.4629C149.917 18.4629 150.245 18.5366 150.603 18.6988C150.96 18.861 151.124 19.0821 151.124 19.377Z" fill="#B1B1B1"/>
<path d="M0.161133 34.8574C4.07779 36.4791 8.0689 37.7323 12.1345 38.6906C16.1703 39.6932 20.2806 40.4009 24.3908 40.8431C26.4459 41.1233 28.516 41.1528 30.5562 41.3444C32.6262 41.3592 34.6813 41.5213 36.7365 41.4034L39.8192 41.3297C40.8467 41.3149 41.8743 41.1822 42.9019 41.1233C43.9294 41.0348 44.957 40.9906 45.9697 40.8579L49.0226 40.4303C53.1179 39.988 57.0942 39.0445 61.0555 37.9092C65.0615 36.8182 68.8441 35.3734 72.8502 33.8696C76.9455 32.3805 81.3834 31.4074 85.8809 31.8792C88.0998 32.1593 90.3336 32.867 92.1505 34.1644C93.9822 35.4471 95.2928 37.2753 96.1267 39.1919C94.8758 37.4817 93.3121 36.0811 91.5101 35.2112C89.7082 34.3413 87.7275 33.9875 85.7617 34.0465C81.7855 34.1055 77.8688 35.4176 74.1904 37.0689C70.4525 38.897 66.4018 40.5483 62.3213 41.9194C58.2111 43.2316 53.9668 44.2783 49.6629 44.8091C41.0999 45.9296 32.3284 45.9443 23.8696 44.2489C19.6253 43.4822 15.4852 42.288 11.4792 40.7694C7.50299 39.1919 3.61613 37.349 0.161133 34.8574Z" fill="#B1B1B1"/>
<path d="M142.576 10.3099C139.255 8.90928 135.874 7.81827 132.449 6.96316C129.039 6.06382 125.584 5.42986 122.114 4.98756C120.386 4.72218 118.629 4.6632 116.901 4.4568C115.159 4.41257 113.431 4.23565 111.689 4.30936C110.825 4.32411 109.947 4.32411 109.083 4.30936C108.219 4.30936 107.341 4.39782 106.477 4.42731C105.613 4.48628 104.734 4.50103 103.871 4.58949L101.279 4.8991C97.8095 5.17922 94.4438 5.8869 91.0782 6.75675C87.6679 7.56764 84.4362 8.71762 80.9961 9.86759C77.4667 11.0323 73.6394 11.74 69.7972 11.2092C67.9059 10.8996 65.9997 10.2362 64.4955 9.05671C62.9616 7.89199 61.9192 6.29971 61.2788 4.63372C62.3362 6.0933 63.6467 7.28751 65.1508 8.02468C66.6549 8.76185 68.3079 9.07145 69.961 9.05671C73.2968 9.05671 76.6029 7.99519 79.7303 6.66829C82.9172 5.16448 86.4169 3.83758 89.9017 2.74657C93.4163 1.6998 97.0798 0.903657 100.743 0.520331C108.055 -0.246322 115.531 -0.0694021 122.694 1.61134C126.283 2.36325 129.783 3.51322 133.134 4.92858C136.5 6.37343 139.746 8.05416 142.576 10.3099Z" fill="#B1B1B1"/>
</svg>
