<svg width="122" height="50" viewBox="0 0 122 50" fill="none" xmlns="http://www.w3.org/2000/svg">
<path d="M0.123779 30.649V0.484131H18.069V30.6342H0.123779V30.649ZM15.8947 23.6311L16.3564 20.2991L14.6884 20.137L14.1821 22.7023C13.1396 23.2183 11.8589 23.469 10.325 23.469C8.24006 23.469 6.58701 22.8203 5.38074 21.5081C4.15957 20.1959 3.56388 18.471 3.56388 16.3185C3.56388 14.2249 4.15958 12.4999 5.33606 11.1436C6.51255 9.78717 8.06138 9.10897 9.98248 9.10897C10.9654 9.10897 11.7993 9.22692 12.4695 9.44807C13.1396 9.66922 13.7502 9.96408 14.331 10.3474L14.8225 12.8833L16.5202 12.7211L16.0287 9.3891C15.3139 8.78462 14.465 8.29809 13.4821 7.91476C12.4992 7.54618 11.2781 7.35452 9.83355 7.35452C8.12094 7.35452 6.64661 7.76733 5.41055 8.6077C4.1745 9.44807 3.2065 10.5538 2.52145 11.9249C1.83641 13.3108 1.49389 14.7999 1.49389 16.3922C1.49389 18.9133 2.28317 21.0216 3.86175 22.7023C5.44032 24.383 7.49544 25.2234 10.042 25.2234C12.5439 25.2234 14.4948 24.6927 15.8947 23.6311Z" fill="#B1B1B1"/>
<path d="M24.1599 30.649V0.484131H31.8741V30.6342H24.1599V30.649ZM24.979 24.958H31.0699V23.4395H28.9701V6.60261H24.9492V8.12117H27.0788V23.4395H24.979V24.958Z" fill="#B1B1B1"/>
<path d="M37.9651 30.649V0.484131H51.517V30.6342H37.9651V30.649ZM40.4223 13.989L39.9905 16.7313L41.5541 16.9229L42.0158 14.8736C42.6859 14.5493 43.4454 14.3871 44.339 14.3871C45.4112 14.3871 46.141 14.6525 46.5133 15.1832C46.8856 15.714 47.0643 16.4069 47.0643 17.262V18.3235C46.7366 18.2941 46.3941 18.2646 46.0218 18.2498C45.6495 18.2351 45.2921 18.2203 44.9347 18.2203C43.5944 18.2203 42.3136 18.4562 41.1222 18.928C39.9309 19.3998 39.3352 20.3876 39.3352 21.8767C39.3352 23.1446 39.7373 24.0145 40.5564 24.4862C41.3754 24.9728 42.1796 25.2087 42.9689 25.2087C43.9369 25.2087 44.7708 24.958 45.4559 24.4568C46.1409 23.9555 46.6771 23.3952 47.0643 22.7465V22.8055C47.0941 24.4125 47.8238 25.2087 49.2534 25.2087C49.8044 25.2087 50.3257 25.076 50.8171 24.8106L50.7873 23.5869C50.5491 23.6901 50.281 23.7491 49.9831 23.7491C49.2981 23.7491 48.9556 23.3215 48.9556 22.4664V16.8197C48.9556 14.1659 47.5259 12.839 44.6666 12.839C43.8773 12.839 43.1327 12.9275 42.4328 13.1044C41.7179 13.2961 41.0478 13.5909 40.4223 13.989ZM47.0494 20.5056C46.9749 21.4786 46.5728 22.26 45.8431 22.8203C45.1134 23.3952 44.339 23.6754 43.505 23.6754C42.9838 23.6754 42.4775 23.5279 42.0009 23.2478C41.5095 22.9677 41.2712 22.4369 41.2712 21.6703C41.2712 20.7414 41.6435 20.1517 42.3583 19.8716C43.088 19.5915 43.8922 19.4588 44.8006 19.4588C45.2027 19.4588 45.5899 19.4735 45.9622 19.5178C46.3345 19.5472 46.7068 19.5767 47.0345 19.5915V20.5056H47.0494Z" fill="#B1B1B1"/>
<path d="M57.6228 30.649V0.484131H69.9387V30.6342H57.6228V30.649ZM68.6431 21.5228C68.6431 20.5793 68.3899 19.8863 67.8835 19.4293C67.3772 18.9722 66.7666 18.6626 66.022 18.4857C65.2774 18.3088 64.5477 18.1614 63.818 18.0434C63.0883 17.9255 62.4628 17.7338 61.9564 17.4832C61.4501 17.2325 61.1969 16.7902 61.1969 16.1563C61.1969 15.5518 61.4352 15.1095 61.9266 14.8146C62.4181 14.5198 63.0287 14.3871 63.7882 14.3871C64.6668 14.3871 65.4859 14.5787 66.2454 14.9768L66.5433 16.8934L68.107 16.7018L67.8091 13.93C67.3028 13.6204 66.6922 13.3698 65.9625 13.1634C65.2327 12.957 64.4583 12.839 63.6244 12.839C62.5223 12.839 61.5097 13.1044 60.5715 13.6204C59.6333 14.1364 59.1716 15.021 59.1716 16.289C59.1716 17.2178 59.4247 17.896 59.9311 18.3235C60.4374 18.7658 61.0629 19.0607 61.8224 19.2376C62.5819 19.4145 63.3265 19.562 64.0711 19.6947C64.8157 19.8126 65.4412 20.019 65.9476 20.2844C66.4539 20.5498 66.7071 21.0068 66.7071 21.6703C66.7071 22.3485 66.3794 22.8497 65.7241 23.1741C65.0689 23.4984 64.3243 23.6606 63.4754 23.6606C62.5223 23.6606 61.6288 23.469 60.8097 23.0709L60.8842 21.4934L59.3801 21.3312L59.0078 24.0292C59.529 24.3683 60.214 24.6484 61.048 24.8696C61.882 25.0907 62.7159 25.2087 63.5648 25.2087C65.0093 25.2087 66.2156 24.8843 67.1836 24.2209C68.1516 23.5869 68.6431 22.6728 68.6431 21.5228Z" fill="#B1B1B1"/>
<path d="M76.0295 30.649V0.484131H88.3454V30.6342H76.0295V30.649ZM87.0497 21.5228C87.0497 20.5793 86.7966 19.8863 86.2902 19.4293C85.7839 18.9722 85.1733 18.6626 84.4287 18.4857C83.6841 18.3088 82.9544 18.1614 82.2247 18.0434C81.495 17.9255 80.8695 17.7338 80.3631 17.4832C79.8568 17.2325 79.6036 16.7902 79.6036 16.1563C79.6036 15.5518 79.8419 15.1095 80.3333 14.8146C80.8248 14.5198 81.4354 14.3871 82.1949 14.3871C83.0735 14.3871 83.8926 14.5787 84.6521 14.9768L84.95 16.8934L86.5136 16.7018L86.2158 13.93C85.7094 13.6204 85.0989 13.3698 84.3692 13.1634C83.6394 12.957 82.865 12.839 82.0311 12.839C80.929 12.839 79.9164 13.1044 78.9782 13.6204C78.04 14.1364 77.5783 15.021 77.5783 16.289C77.5783 17.2178 77.8315 17.896 78.3378 18.3235C78.8442 18.7658 79.4697 19.0607 80.2292 19.2376C80.9887 19.4145 81.7332 19.562 82.4778 19.6947C83.2224 19.8126 83.8479 20.019 84.3543 20.2844C84.8606 20.5498 85.1138 21.0068 85.1138 21.6703C85.1138 22.3485 84.7862 22.8497 84.1309 23.1741C83.4757 23.4984 82.731 23.6606 81.8822 23.6606C80.9291 23.6606 80.0355 23.469 79.2164 23.0709L79.2909 21.4934L77.7868 21.3312L77.4145 24.0292C77.9357 24.3683 78.6208 24.6484 79.4547 24.8696C80.2887 25.0907 81.1227 25.2087 81.9715 25.2087C83.4161 25.2087 84.6223 24.8843 85.5903 24.2209C86.5583 23.5869 87.0497 22.6728 87.0497 21.5228Z" fill="#B1B1B1"/>
<path d="M94.4365 30.649V0.484131H102.553V30.6342H94.4365V30.649ZM95.6279 24.958H101.719V23.4395H99.619V13.0897H95.5833V14.6082H97.7426V23.4395H95.6428V24.958H95.6279ZM97.5341 7.59041V10.0231H99.5893V7.59041H97.5341Z" fill="#B1B1B1"/>
<path d="M108.644 30.649V0.484131H121.615V30.6342H108.644V30.649ZM120.453 20.9626L118.83 20.6088C118.472 22.6138 117.385 23.6164 115.598 23.6164C114.407 23.6164 113.498 23.2183 112.873 22.4222C112.248 21.626 111.935 20.5056 111.935 19.0902C111.935 17.8075 112.218 16.7165 112.769 15.8024C113.32 14.8884 114.243 14.4461 115.524 14.4461C116.507 14.4461 117.37 14.6672 118.085 15.1095L118.547 17.1146L120.111 16.9229L119.649 14.0627C119.038 13.6057 118.398 13.2813 117.728 13.1044C117.058 12.9275 116.328 12.839 115.539 12.839C113.677 12.839 112.262 13.4877 111.339 14.7851C110.401 16.0826 109.939 17.5569 109.939 19.1934C109.939 21.0953 110.431 22.5844 111.428 23.6311C112.411 24.6927 113.737 25.2234 115.39 25.2234C117.043 25.2234 118.264 24.7664 119.038 23.867C119.813 22.9529 120.289 21.9946 120.453 20.9626Z" fill="#B1B1B1"/>
<path d="M7.8827 47.1171C7.54018 47.7363 7.03383 48.2228 6.37857 48.5619C5.70842 48.901 4.91912 49.0779 3.9958 49.0779H1.33008V40.7627H3.9958C4.91912 40.7627 5.72331 40.9249 6.37857 41.264C7.03383 41.6031 7.54018 42.0749 7.8827 42.7088C8.22522 43.3428 8.38903 44.0652 8.38903 44.9203C8.38903 45.7607 8.22522 46.4978 7.8827 47.1171ZM6.40834 47.2792C6.98914 46.719 7.27211 45.9376 7.27211 44.9203C7.27211 43.903 6.98914 43.1216 6.40834 42.5614C5.82754 42.0011 4.99357 41.721 3.89155 41.721H2.38746V48.1196H3.89155C4.99357 48.1196 5.82754 47.8395 6.40834 47.2792Z" fill="#B1B1B1"/>
<path d="M13.9141 41.6326V44.478H17.101V45.3036H13.9141V48.2081H17.4584V49.0779H12.8269V40.7627H17.4584V41.6326H13.9141Z" fill="#B1B1B1"/>
<path d="M26.8705 48.0165C26.6769 48.3556 26.3939 48.6357 26.0067 48.8421C25.6195 49.0485 25.143 49.1665 24.5622 49.1665C24.0111 49.1665 23.5048 49.0633 23.0729 48.8716C22.6411 48.6652 22.2986 48.3998 22.0305 48.046C21.7773 47.6921 21.6284 47.2941 21.5837 46.8518H22.7453C22.7751 47.0877 22.8496 47.3236 22.9836 47.5447C23.1176 47.7659 23.3261 47.9575 23.5793 48.1049C23.8324 48.2524 24.1452 48.3261 24.5175 48.3261C24.994 48.3261 25.3664 48.2082 25.6195 47.9428C25.8727 47.6774 26.0067 47.3678 26.0067 46.9697C26.0067 46.6306 25.9174 46.3505 25.7387 46.1441C25.5599 45.9377 25.3366 45.7608 25.0834 45.6428C24.8302 45.5249 24.4579 45.3922 24.0112 45.2447C23.475 45.0678 23.0581 44.9056 22.7304 44.7582C22.4028 44.6108 22.1347 44.3749 21.9113 44.0653C21.688 43.7557 21.5688 43.3576 21.5688 42.8563C21.5688 42.4288 21.6731 42.0454 21.8816 41.7063C22.0901 41.382 22.3879 41.1166 22.79 40.9397C23.1772 40.7628 23.6538 40.6743 24.175 40.6743C24.9941 40.6743 25.6642 40.866 26.1407 41.2641C26.6322 41.6621 26.9002 42.1634 26.9896 42.7826H25.828C25.7684 42.4583 25.5897 42.1634 25.3217 41.9128C25.0387 41.6621 24.6664 41.5294 24.1899 41.5294C23.758 41.5294 23.4006 41.6474 23.1474 41.8685C22.8794 42.0897 22.7602 42.414 22.7602 42.8121C22.7602 43.1365 22.8496 43.4018 23.0134 43.5935C23.1921 43.7999 23.4006 43.9473 23.6538 44.0653C23.9069 44.1832 24.2643 44.3012 24.6962 44.4486C25.2323 44.6255 25.6642 44.7877 26.0067 44.9499C26.3343 45.1121 26.6173 45.3479 26.8407 45.6576C27.0641 45.9672 27.1832 46.3947 27.1832 46.9255C27.1534 47.3088 27.0641 47.6774 26.8705 48.0165Z" fill="#B1B1B1"/>
<path d="M32.6782 40.7627V49.0779H31.5911V40.7627H32.6782Z" fill="#B1B1B1"/>
<path d="M43.6688 41.3967C44.339 41.8833 44.7857 42.532 45.0091 43.3576H43.8624C43.6688 42.8563 43.3263 42.4435 42.8646 42.1486C42.403 41.839 41.852 41.6916 41.2116 41.6916C40.6457 41.6916 40.1244 41.8243 39.6777 42.0897C39.2309 42.355 38.8735 42.7236 38.6055 43.2102C38.3523 43.6967 38.2183 44.2717 38.2183 44.9351C38.2183 45.6133 38.3523 46.203 38.6055 46.6896C38.8586 47.1761 39.2309 47.5594 39.6926 47.8248C40.1542 48.0902 40.6904 48.2229 41.301 48.2229C41.8222 48.2229 42.2838 48.1049 42.7157 47.8985C43.1476 47.6774 43.4901 47.353 43.773 46.9402C44.056 46.5274 44.2049 46.0261 44.2645 45.4659H40.9584V44.6697H45.1729V45.6575C45.0985 46.321 44.89 46.9107 44.5475 47.4562C44.2049 48.0017 43.7433 48.4145 43.1625 48.7241C42.5817 49.0338 41.9264 49.1959 41.1818 49.1959C40.3776 49.1959 39.6628 49.019 39.0373 48.6652C38.4118 48.3113 37.9353 47.8101 37.5928 47.1614C37.2502 46.5274 37.0715 45.7902 37.0715 44.9646C37.0715 44.139 37.2502 43.4018 37.5928 42.7679C37.9353 42.1339 38.4267 41.6179 39.0373 41.264C39.6479 40.9102 40.3627 40.7185 41.1669 40.7185C42.1796 40.689 42.9987 40.9249 43.6688 41.3967Z" fill="#B1B1B1"/>
<path d="M56.1632 49.0779H55.0761L50.7126 42.5024V49.0779H49.6255V40.7627H50.7126L55.0761 47.3382V40.7627H56.1632V49.0779Z" fill="#B1B1B1"/>
<path d="M71.8297 48.0165C71.6361 48.3556 71.3531 48.6357 70.9659 48.8421C70.5787 49.0485 70.1022 49.1665 69.5214 49.1665C68.9704 49.1665 68.4641 49.0633 68.0322 48.8716C67.6003 48.6652 67.2578 48.3998 66.9897 48.046C66.7366 47.6921 66.5877 47.2941 66.543 46.8518H67.7045C67.7343 47.0877 67.8088 47.3236 67.9429 47.5447C68.0769 47.7659 68.2853 47.9575 68.5385 48.1049C68.7917 48.2524 69.1044 48.3261 69.4767 48.3261C69.9533 48.3261 70.3256 48.2082 70.5787 47.9428C70.8319 47.6774 70.9659 47.3678 70.9659 46.9697C70.9659 46.6306 70.8766 46.3505 70.6979 46.1441C70.5192 45.9377 70.2958 45.7608 70.0426 45.6428C69.7895 45.5249 69.4172 45.3922 68.9704 45.2447C68.4343 45.0678 68.0173 44.9056 67.6896 44.7582C67.362 44.6108 67.094 44.3749 66.8706 44.0653C66.6472 43.7557 66.5281 43.3576 66.5281 42.8563C66.5281 42.4288 66.6323 42.0454 66.8408 41.7063C67.0492 41.382 67.3472 41.1166 67.7493 40.9397C68.1364 40.7628 68.613 40.6743 69.1342 40.6743C69.9533 40.6743 70.6235 40.866 71.1 41.2641C71.5914 41.6621 71.8595 42.1634 71.9489 42.7826H70.7872C70.7277 42.4583 70.5489 42.1634 70.2809 41.9128C69.9979 41.6621 69.6257 41.5294 69.1491 41.5294C68.7172 41.5294 68.3598 41.6474 68.1066 41.8685C67.8386 42.0897 67.7194 42.414 67.7194 42.8121C67.7194 43.1365 67.8088 43.4018 67.9726 43.5935C68.1513 43.7999 68.3598 43.9473 68.6129 44.0653C68.8661 44.1832 69.2235 44.3012 69.6554 44.4486C70.1915 44.6255 70.6234 44.7877 70.9659 44.9499C71.2936 45.1121 71.5765 45.3479 71.7999 45.6576C72.0233 45.9672 72.1424 46.3947 72.1424 46.9255C72.1126 47.3088 72.0233 47.6774 71.8297 48.0165Z" fill="#B1B1B1"/>
<path d="M81.7033 40.7627V41.6326H79.3354V49.0779H78.2334V41.6326H75.8655V40.7627H81.7033Z" fill="#B1B1B1"/>
<path d="M86.7673 40.7627V45.7459C86.7673 46.5568 86.946 47.1613 87.3183 47.5594C87.6906 47.9427 88.182 48.1491 88.8373 48.1491C89.4777 48.1491 89.9691 47.9574 90.3265 47.5594C90.6839 47.1613 90.8626 46.5716 90.8626 45.7607V40.7774H91.9498V45.7607C91.9498 46.8959 91.6668 47.751 91.1009 48.3113C90.535 48.8863 89.7755 49.1664 88.8224 49.1664C87.8842 49.1664 87.1247 48.8863 86.5588 48.3113C85.9929 47.7363 85.71 46.8959 85.71 45.7607V40.7774H86.7673V40.7627Z" fill="#B1B1B1"/>
<path d="M103.163 47.1171C102.821 47.7363 102.314 48.2228 101.659 48.5619C100.989 48.901 100.2 49.0779 99.2763 49.0779H96.6106V40.7627H99.2763C100.2 40.7627 101.004 40.9249 101.659 41.264C102.314 41.6031 102.821 42.0749 103.163 42.7088C103.506 43.3428 103.67 44.0652 103.67 44.9203C103.67 45.7607 103.506 46.4978 103.163 47.1171ZM101.704 47.2792C102.285 46.719 102.567 45.9376 102.567 44.9203C102.567 43.903 102.285 43.1216 101.704 42.5614C101.123 42.0011 100.289 41.721 99.1869 41.721H97.6828V48.1196H99.1869C100.274 48.1196 101.123 47.8395 101.704 47.2792Z" fill="#B1B1B1"/>
<path d="M109.209 40.7627V49.0779H108.122V40.7627H109.209Z" fill="#B1B1B1"/>
<path d="M119.872 41.2052C120.498 41.5738 120.989 42.075 121.346 42.7237C121.704 43.3724 121.883 44.1096 121.883 44.9205C121.883 45.7314 121.704 46.4685 121.346 47.1172C120.989 47.7659 120.498 48.2672 119.872 48.6358C119.247 49.0044 118.547 49.1813 117.772 49.1813C116.998 49.1813 116.283 49.0044 115.658 48.6358C115.032 48.2672 114.526 47.7659 114.168 47.1172C113.811 46.4685 113.632 45.7314 113.632 44.9205C113.632 44.1096 113.811 43.3724 114.168 42.7237C114.526 42.075 115.017 41.5738 115.658 41.2052C116.298 40.8366 116.998 40.6597 117.772 40.6597C118.547 40.6597 119.247 40.8366 119.872 41.2052ZM116.209 42.0603C115.747 42.3257 115.39 42.6942 115.136 43.1955C114.883 43.682 114.749 44.257 114.749 44.9205C114.749 45.5692 114.883 46.1442 115.136 46.6455C115.39 47.1467 115.747 47.5153 116.209 47.7807C116.67 48.0461 117.177 48.1788 117.757 48.1788C118.323 48.1788 118.845 48.0461 119.306 47.7807C119.768 47.5153 120.125 47.132 120.378 46.6455C120.632 46.1589 120.766 45.5839 120.766 44.9352C120.766 44.2718 120.632 43.6968 120.378 43.2103C120.125 42.7237 119.768 42.3404 119.306 42.075C118.845 41.8096 118.338 41.677 117.757 41.677C117.192 41.6622 116.67 41.7949 116.209 42.0603Z" fill="#B1B1B1"/>
</svg>
