<svg width="20" height="20" viewBox="0 0 20 20" fill="none" xmlns="http://www.w3.org/2000/svg">
<path d="M13.8655 2.14564C14.9461 2.14875 15.9816 2.56352 16.7458 3.29938C17.5099 4.03523 17.9407 5.03236 17.9439 6.07301V13.9269C17.9407 14.9675 17.5099 15.9647 16.7458 16.7005C15.9816 17.4364 14.9461 17.8512 13.8655 17.8543H5.70952C4.62885 17.8512 3.59336 17.4364 2.82921 16.7005C2.06506 15.9647 1.63433 14.9675 1.6311 13.9269V6.07301C1.63433 5.03236 2.06506 4.03523 2.82921 3.29938C3.59336 2.56352 4.62885 2.14875 5.70952 2.14564H13.8655ZM13.8655 0.574951H5.70952C2.56922 0.574951 0 3.04901 0 6.07301V13.9269C0 16.9509 2.56922 19.425 5.70952 19.425H13.8655C17.0058 19.425 19.575 16.9509 19.575 13.9269V6.07301C19.575 3.04901 17.0058 0.574951 13.8655 0.574951Z" fill="white"/>
<path d="M15.089 6.07183C14.847 6.07183 14.6105 6.00273 14.4093 5.87328C14.2081 5.74382 14.0513 5.55982 13.9587 5.34455C13.8661 5.12928 13.8418 4.89239 13.889 4.66386C13.9362 4.43533 14.0528 4.22541 14.2239 4.06064C14.395 3.89588 14.613 3.78367 14.8503 3.73821C15.0876 3.69276 15.3336 3.71609 15.5572 3.80526C15.7807 3.89443 15.9718 4.04543 16.1062 4.23917C16.2406 4.43291 16.3124 4.66069 16.3124 4.8937C16.3127 5.04851 16.2813 5.20186 16.22 5.34494C16.1586 5.48803 16.0685 5.61804 15.9548 5.7275C15.8412 5.83697 15.7062 5.92374 15.5576 5.98283C15.409 6.04191 15.2497 6.07216 15.089 6.07183ZM9.78755 6.85696C10.4328 6.85696 11.0636 7.04123 11.6002 7.38645C12.1367 7.73168 12.5549 8.22236 12.8018 8.79645C13.0488 9.37054 13.1134 10.0023 12.9875 10.6117C12.8616 11.2212 12.5509 11.781 12.0946 12.2204C11.6383 12.6598 11.057 12.959 10.4241 13.0802C9.79117 13.2014 9.13516 13.1392 8.53899 12.9014C7.94282 12.6636 7.43326 12.2609 7.07476 11.7443C6.71626 11.2276 6.5249 10.6202 6.5249 9.99877C6.52583 9.16578 6.86987 8.36717 7.48153 7.77816C8.0932 7.18915 8.92253 6.85785 9.78755 6.85696ZM9.78755 5.28627C8.81966 5.28627 7.8735 5.56265 7.06873 6.08047C6.26396 6.59829 5.63671 7.33428 5.26632 8.19537C4.89592 9.05647 4.79901 10.004 4.98783 10.9181C5.17666 11.8323 5.64274 12.672 6.32715 13.331C7.01155 13.9901 7.88353 14.4389 8.83283 14.6207C9.78212 14.8026 10.7661 14.7092 11.6603 14.3526C12.5545 13.9959 13.3188 13.3919 13.8566 12.6169C14.3943 11.8419 14.6813 10.9308 14.6813 9.99877C14.6813 8.74894 14.1657 7.55029 13.248 6.66653C12.3302 5.78276 11.0855 5.28627 9.78755 5.28627Z" fill="white"/>
</svg>
