<svg width="19" height="16" viewBox="0 0 19 16" fill="none" xmlns="http://www.w3.org/2000/svg">
<path d="M17.5771 0.799805H0.862828C0.692332 0.799805 0.528818 0.868766 0.408259 0.991517C0.2877 1.11427 0.219971 1.28075 0.219971 1.45435V14.5453C0.219971 14.7189 0.2877 14.8853 0.408259 15.0081C0.528818 15.1308 0.692332 15.1998 0.862828 15.1998H17.5771C17.7476 15.1998 17.9111 15.1308 18.0317 15.0081C18.1522 14.8853 18.22 14.7189 18.22 14.5453V1.45435C18.22 1.28075 18.1522 1.11427 18.0317 0.991517C17.9111 0.868766 17.7476 0.799805 17.5771 0.799805ZM9.61452 9.17103C9.5017 9.26033 9.36287 9.30881 9.21997 9.30881C9.07707 9.30881 8.93824 9.26033 8.82542 9.17103L2.53225 4.18749L3.32135 3.15412L9.21997 7.82512L15.1186 3.15412L15.9077 4.18749L9.61452 9.17103Z" fill="#CCAA60"/>
</svg>
