<svg width="20" height="20" viewBox="0 0 20 20" fill="none" xmlns="http://www.w3.org/2000/svg">
<path d="M10.0683 0.0571289C4.57631 0.0571289 0.12323 4.50823 0.12323 9.99777C0.12323 14.0672 2.57398 17.5642 6.07696 19.1041C6.05032 18.4118 6.07252 17.5775 6.25011 16.8231C6.44102 16.0154 7.52876 11.4045 7.52876 11.4045C7.52876 11.4045 7.2091 10.7699 7.2091 9.83357C7.2091 8.36022 8.06153 7.25965 9.12708 7.25965C10.0328 7.25965 10.4679 7.93863 10.4679 8.75075C10.4679 9.66049 9.88628 11.0185 9.58881 12.2788C9.34018 13.335 10.1171 14.1915 11.1605 14.1915C13.0429 14.1915 14.3127 11.7729 14.3127 8.90607C14.3127 6.72712 12.8432 5.09845 10.1749 5.09845C7.16026 5.09845 5.2778 7.34841 5.2778 9.8602C5.2778 10.7256 5.5353 11.338 5.93488 11.8084C6.11691 12.0258 6.14355 12.1146 6.07696 12.3631C6.02812 12.5451 5.92156 12.9844 5.87273 13.1619C5.80613 13.4149 5.6019 13.5036 5.37547 13.4104C3.98583 12.8424 3.33762 11.3247 3.33762 9.61168C3.33762 6.78925 5.72177 3.40322 10.4457 3.40322C14.2417 3.40322 16.7413 6.15021 16.7413 9.0969C16.7413 12.9977 14.5702 15.9089 11.3736 15.9089C10.2992 15.9089 9.29135 15.3275 8.94504 14.6708C8.94504 14.6708 8.36788 16.9607 8.24356 17.4044C8.03489 18.1722 7.62199 18.9355 7.24461 19.5346C8.16004 19.8045 9.10943 19.942 10.0639 19.9428C15.5559 19.9428 20.0089 15.4917 20.0089 10.0022C20.0089 4.51267 15.5603 0.0571289 10.0683 0.0571289Z" fill="white"/>
</svg>
