<svg width="22" height="18" viewBox="0 0 22 18" fill="none" xmlns="http://www.w3.org/2000/svg">
<path d="M21.1232 2.59881C20.3365 2.94065 19.5041 3.16587 18.6523 3.26733C19.5475 2.74317 20.2207 1.91044 20.5456 0.925323C19.6993 1.4202 18.7749 1.76743 17.8121 1.95214C17.4067 1.52722 16.919 1.18919 16.3789 0.958594C15.8387 0.727994 15.2574 0.60964 14.67 0.610725C12.2922 0.610725 10.3679 2.50705 10.3679 4.84469C10.3662 5.16985 10.4035 5.49404 10.4789 5.81033C8.77381 5.7304 7.10419 5.29543 5.57684 4.53326C4.04949 3.77109 2.69805 2.6985 1.60897 1.38411C1.2269 2.02822 1.02484 2.76312 1.02391 3.51202C1.02391 4.98014 1.78987 6.27786 2.94645 7.03814C2.26121 7.02188 1.59001 6.84051 0.989827 6.50944V6.56187C0.989827 8.6155 2.47543 10.3239 4.44167 10.7128C4.07192 10.8114 3.6909 10.8613 3.30824 10.8614C3.03672 10.8619 2.76581 10.8355 2.49946 10.7827C3.04608 12.465 4.63698 13.6884 6.52151 13.7234C4.9902 14.9035 3.11014 15.5414 1.17684 15.5367C0.833672 15.5361 0.490824 15.5157 0.150024 15.4755C2.11678 16.7314 4.40298 17.3956 6.73649 17.3893C14.6609 17.3893 18.9901 10.9357 18.9901 5.33844C18.9901 5.15492 18.9853 4.97141 18.9765 4.79226C19.8168 4.19455 20.5438 3.45177 21.1232 2.59881Z" fill="white"/>
</svg>
